<svg width="390" height="266" viewBox="0 0 390 266" fill="none" xmlns="http://www.w3.org/2000/svg">
<path d="M84.4864 48.2536C91.0073 48.2536 96.2936 42.9674 96.2936 36.4465C96.2936 29.9256 91.0073 24.6394 84.4864 24.6394C77.9655 24.6394 72.6793 29.9256 72.6793 36.4465C72.6793 42.9674 77.9655 48.2536 84.4864 48.2536Z" fill="#B37FEB"/>
<path d="M87.4745 45.1205L86.5606 43.0608C85.3712 43.554 83.9787 43.728 83.0504 43.5395L82.9344 41.9584C83.8772 42.118 85.1101 42.0454 86.256 41.5378C87.7066 40.8995 88.3158 39.6376 87.8081 38.4772C87.3149 37.3603 86.2125 37.0122 84.4429 37.0702C82.0061 37.1717 80.309 36.7946 79.5257 35.025C78.7859 33.3279 79.4242 31.5148 81.1648 30.3834L80.2509 28.3237L81.5129 27.7725L82.3832 29.7451C83.6306 29.252 84.6025 29.2085 85.3422 29.2955L85.4293 30.862C84.8926 30.804 83.8627 30.7315 82.5573 31.2972C80.9907 31.9934 80.8166 33.1828 81.1648 33.9951C81.6289 35.054 82.6153 35.2571 84.7185 35.199C87.1989 35.1265 88.7219 35.7212 89.5197 37.5344C90.2304 39.1444 89.7663 41.1461 87.8226 42.4226L88.7509 44.5403L87.4745 45.1205Z" fill="white"/>
<path d="M50.298 98.035L40.333 86.8516C40.333 86.8516 44.0028 79.0043 54.751 78.7142C61.4234 78.5402 67.3124 71.8243 67.3124 71.8243L77.3209 83.0658C77.3209 83.0658 70.8371 92.291 63.2075 92.349C55.1717 92.436 50.298 98.035 50.298 98.035Z" fill="#B37FEB"/>
<path d="M64.5419 82.6016C65.5863 85.4881 63.7006 88.8097 60.35 90.0282C56.9848 91.2466 53.4166 89.8976 52.3722 87.0111C51.3278 84.1246 53.2135 80.8029 56.5642 79.5845C59.9293 78.3661 63.4976 79.7151 64.5419 82.6016Z" fill="#D3ADF7"/>
<path d="M361.852 110.77L357.036 96.5845C357.036 96.5845 348.391 95.9027 342.85 105.113C339.413 110.828 330.652 112.642 330.652 112.642L335.496 126.9C335.496 126.9 346.709 125.812 350.538 119.212C354.571 112.235 361.852 110.77 361.852 110.77Z" fill="#B37FEB"/>
<path d="M341.385 115.543C343.373 117.878 347.202 117.878 349.914 115.557C352.627 113.236 353.222 109.465 351.234 107.13C349.247 104.794 345.418 104.794 342.705 107.115C339.993 109.436 339.398 113.207 341.385 115.543Z" fill="#D3ADF7"/>
<path d="M356.906 265.757C373.732 238.908 391.08 217.441 389.267 179.394C387.715 146.786 350.901 137.373 341.124 123.491C329.158 106.506 343.199 74.3192 321.978 45.3381C298.741 13.601 261.506 14.2973 230.886 30.3254C208.519 42.0309 185.558 46.0633 163.075 39.1299C125.072 27.3953 73.0129 24.1172 67.8346 70.7074C64.2374 103.097 46.6137 113.149 18.6625 134.892C-19.0361 164.222 9.65487 222.184 24.1889 263.161L356.906 265.757Z" fill="#EFDBFF"/>
<path d="M356.906 265.757H5.1873C4.21546 265.757 3.43219 264.974 3.43219 264.002V263.668C3.43219 262.696 4.21546 261.913 5.1873 261.913H356.906C357.878 261.913 358.661 262.696 358.661 263.668V264.002C358.661 264.988 357.878 265.757 356.906 265.757Z" fill="#D3ADF7"/>
<path d="M225.389 121.054C227.26 127.393 223.633 134.036 217.295 135.893C210.956 137.764 204.313 134.138 202.456 127.799C200.585 121.461 204.211 114.817 210.55 112.961C216.889 111.104 223.532 114.73 225.389 121.054Z" fill="white"/>
<path d="M215.801 133.529L215.163 131.339C213.901 131.687 212.494 131.672 211.58 131.368L211.667 129.772C212.595 130.062 213.843 130.135 215.061 129.787C216.599 129.337 217.367 128.147 217.005 126.915C216.657 125.725 215.598 125.232 213.799 125.058C211.333 124.84 209.68 124.246 209.128 122.374C208.606 120.576 209.477 118.835 211.362 117.936L210.724 115.746L212.058 115.354L212.682 117.457C213.988 117.124 214.974 117.196 215.714 117.385L215.598 118.966C215.061 118.835 214.046 118.632 212.653 119.038C210.985 119.531 210.651 120.706 210.913 121.577C211.246 122.708 212.204 123.027 214.321 123.259C216.816 123.506 218.267 124.304 218.832 126.233C219.34 127.944 218.615 129.888 216.497 130.918L217.164 133.166L215.801 133.529Z" fill="#D3ADF7"/>
<path d="M198.583 149.325L184.151 159.565L138.779 191.723L134.079 195.059L137.647 200.151L157.49 228.392L192.201 203.733L209.868 191.186L210.071 191.041L211.855 168.225L198.583 149.325Z" fill="#3F964F"/>
<path d="M209.172 176.333L200.193 163.554C197.089 165.73 192.825 164.99 190.634 161.886L148.57 191.839C150.745 194.943 150.006 199.222 146.902 201.398L155.88 214.177C158.984 212.001 163.249 212.741 165.439 215.845L207.504 185.892C205.328 182.788 206.082 178.509 209.172 176.333Z" fill="#4EAD60"/>
<path d="M189.242 181.439C185.63 176.29 178.523 175.057 173.388 178.669C168.239 182.28 167.006 189.388 170.617 194.523C174.229 199.672 181.337 200.905 186.471 197.293C191.621 193.681 192.868 186.574 189.242 181.439Z" fill="#3F964F"/>
<path d="M211.855 168.225L199.018 180.511L209.868 191.186L210.042 191.375L210.071 191.041L211.855 168.225Z" fill="#3F964F"/>
<path opacity="0.2" d="M205.328 194.378L199.018 180.511L209.868 191.186L205.328 194.378Z" fill="#193F1E"/>
<path opacity="0.2" d="M211.855 168.225L199.018 180.511L210.985 166.963L211.855 168.225Z" fill="#193F1E"/>
<path opacity="0.2" d="M184.151 159.565L138.764 191.738L137.647 200.165L157.49 228.406L192.186 203.762L190.417 197.046C189.75 194.508 185.253 193.391 179.553 194.029L184.151 159.565Z" fill="#193F1E"/>
<path d="M143.916 136.357L131.352 230.63L171.724 236.01L184.288 141.738L143.916 136.357Z" fill="#3F964F"/>
<path d="M170.951 146.873L155.46 144.814C154.966 148.571 151.514 151.21 147.757 150.703L138.808 217.789C142.565 218.282 145.205 221.734 144.697 225.491L160.188 227.551C160.696 223.794 164.134 221.154 167.89 221.661L176.84 154.576C173.098 154.068 170.458 150.63 170.951 146.873Z" fill="#4EAD60"/>
<path d="M169.725 188.853C170.976 182.691 166.994 176.681 160.831 175.43C154.668 174.179 148.658 178.161 147.407 184.324C146.156 190.487 150.138 196.497 156.301 197.747C162.464 198.998 168.474 195.016 169.725 188.853Z" fill="#3F964F"/>
<path d="M172.314 197.278L133.513 207.519L143.914 246.9L182.715 236.66L175.404 208.941C183.15 206.866 188.734 202.616 187.893 199.411C187.037 196.205 180.075 195.248 172.314 197.278Z" fill="#3F964F"/>
<path d="M144.213 210.929L151.527 238.642L195.131 227.134L187.816 199.421L144.213 210.929Z" fill="#4EAD60"/>
<path d="M172.691 228.213C177.404 225.159 178.748 218.863 175.695 214.15C172.641 209.438 166.345 208.093 161.632 211.147C156.919 214.2 155.575 220.496 158.629 225.209C161.682 229.922 167.978 231.266 172.691 228.213Z" fill="#3F964F"/>
<path opacity="0.2" d="M172.314 197.279L168.34 198.323L178.74 237.704L196.741 232.946L187.893 199.396C187.037 196.205 180.075 195.248 172.314 197.279Z" fill="#193F1E"/>
<path d="M187.878 199.411C188.72 202.616 183.15 206.866 175.39 208.941L185.79 248.322C193.535 246.248 199.12 241.998 198.279 238.792L187.878 199.411Z" fill="#3F964F"/>
<path d="M189.75 206.518C190.127 207.94 189.169 209.521 187.414 210.754C187.936 212.944 186.718 215.12 184.673 215.671H184.658L189.909 235.586H189.924C191.809 235.093 193.753 236.152 194.551 237.994C196.335 236.761 197.307 235.166 196.93 233.73L189.75 206.518Z" fill="#4EAD60"/>
<path d="M141.738 261.826L84.6605 261.855C75.6528 261.855 68.3568 254.573 68.3568 245.566L68.2698 105.897C68.2698 96.889 75.5513 89.593 84.559 89.593L141.636 89.564C150.644 89.564 157.94 96.8455 157.94 105.853L158.027 245.522C158.027 254.515 150.731 261.826 141.738 261.826Z" fill="#2C2858"/>
<path d="M142.318 259.041L84.0658 259.085C77.7416 259.085 72.6068 253.964 72.5923 247.626L72.5052 104.896C72.5052 98.5716 77.6255 93.4368 83.9642 93.4223L142.217 93.3788C148.541 93.3788 153.676 98.4991 153.69 104.838L153.777 247.568C153.777 253.892 148.657 259.027 142.318 259.041Z" fill="url(#paint0_linear)"/>
<path d="M67.7331 135.255C66.3261 135.255 65.1947 134.109 65.1947 132.717V119.531C65.1947 118.124 66.3406 116.993 67.7331 116.993C69.1401 116.993 70.2715 118.124 70.2715 119.531V132.717C70.2715 134.124 69.1401 135.255 67.7331 135.255Z" fill="#2C2858"/>
<path d="M158.419 135.255C157.012 135.255 155.88 134.109 155.88 132.717V119.531C155.88 118.124 157.026 116.993 158.419 116.993C159.826 116.993 160.957 118.124 160.957 119.531V132.717C160.972 134.124 159.826 135.255 158.419 135.255Z" fill="#2C2858"/>
<path d="M296.188 261.826L239.11 261.855C230.103 261.855 222.807 254.573 222.807 245.566L222.72 105.897C222.72 96.889 230.001 89.593 239.009 89.593L296.086 89.564C305.094 89.564 312.39 96.8455 312.39 105.853L312.477 245.522C312.491 254.515 305.195 261.826 296.188 261.826Z" fill="#2C2858"/>
<path d="M296.782 259.041L238.53 259.085C232.206 259.085 227.071 253.964 227.057 247.626L226.97 104.896C226.97 98.5716 232.09 93.4368 238.429 93.4223L296.681 93.3788C303.005 93.3788 308.14 98.4991 308.154 104.838L308.241 247.568C308.241 253.892 303.107 259.027 296.782 259.041Z" fill="url(#paint1_linear)"/>
<path d="M222.183 135.255C220.776 135.255 219.645 134.109 219.645 132.717V119.531C219.645 118.124 220.776 116.993 222.183 116.993C223.59 116.993 224.721 118.124 224.721 119.531V132.717C224.736 134.124 223.59 135.255 222.183 135.255Z" fill="#2C2858"/>
<path d="M312.883 135.255C311.476 135.255 310.345 134.109 310.345 132.717V119.531C310.345 118.124 311.491 116.993 312.883 116.993C314.29 116.993 315.421 118.124 315.421 119.531V132.717C315.421 134.124 314.29 135.255 312.883 135.255Z" fill="#2C2858"/>
<path d="M222.183 154.764C220.776 154.764 219.645 153.633 219.645 152.226V139.041C219.645 137.634 220.776 136.502 222.183 136.502C223.59 136.502 224.721 137.634 224.721 139.041V152.226C224.736 153.633 223.59 154.764 222.183 154.764Z" fill="#2C2858"/>
<path d="M41.508 252.949C39.5933 260.999 32.7324 256.575 34.1684 261.667C34.27 262.044 34.6326 262.29 35.0242 262.305L39.0421 262.464C39.4338 262.479 39.8109 262.363 40.13 262.145C42.2478 260.695 43.6983 258.649 48.2819 258.388C48.2528 256.43 48.3399 253.631 47.6871 252.63L41.508 252.949Z" fill="#652D86"/>
<path d="M52.1112 196.437C52.1112 196.437 40.4056 214.293 38.7956 219.848C37.1855 225.404 40.5652 234.818 39.9415 253.776C43.5967 254.719 48.4849 253.906 48.4849 253.906C48.4849 253.906 51.415 230.118 47.9628 224.505C53.1411 216.614 66.1376 199.367 66.1376 199.367L52.1112 196.437Z" fill="#201D40"/>
<path d="M58.5949 255.545C55.6214 259.607 48.1803 257.199 48.4849 262.638C59.7553 262.464 64.4405 262.479 64.4405 262.479C64.4115 261.231 64.1649 258.258 63.8893 257.097L58.5949 255.545Z" fill="#652D86"/>
<path d="M55.1137 192.84C55.1137 192.84 51.3859 221.966 52.2417 227.681C53.0975 233.396 55.7664 237.878 55.8679 256.851C59.5522 257.663 65.1947 258.388 65.1947 258.388C65.1947 258.388 67.5735 235.499 62.6853 229.204C64.0778 219.863 70.6776 196.379 70.6776 196.379L55.1137 192.84Z" fill="#2C2858"/>
<path d="M35.9815 180.017L31.427 174.912C31.3254 174.796 31.1804 174.738 31.0353 174.738L27.293 174.709C27.1915 174.709 26.8579 175.303 26.9304 175.376L30.136 178.233C30.1505 178.248 30.165 178.262 30.194 178.262L35.7059 180.308C35.822 180.351 36.0686 180.104 35.9815 180.017Z" fill="#C4204A"/>
<path d="M35.6334 180.351L31.2964 175.536C31.1949 175.419 31.0498 175.361 30.9048 175.361L27.0464 175.289C26.9449 175.289 26.8869 175.419 26.9594 175.492L30.0055 178.857C30.02 178.872 30.0345 178.886 30.0635 178.886L35.5029 180.54C35.6334 180.583 35.7205 180.438 35.6334 180.351Z" fill="#E62552"/>
<path d="M44.2059 184.746L41.0728 183.209C41.0728 183.209 37.9832 180.076 37.5191 179.379C36.8373 179.031 35.5319 178.161 35.2418 178.117C34.9517 178.088 34.3425 178.175 34.3425 178.175L35.793 179.829C35.793 179.829 35.0967 179.959 34.2264 179.408C33.3416 178.843 31.7896 177.349 31.0353 177.639C30.7597 177.871 30.7597 177.871 30.7597 177.871C30.7597 177.871 30.281 177.363 29.8314 177.552C29.3817 177.74 30.281 180.003 32.8339 182.396C33.008 183.035 33.8493 184.151 33.8493 184.151L39.0131 185.965L44.2059 184.746Z" fill="#F37A50"/>
<path d="M30.6002 176.261C30.7887 176.449 31.0498 176.478 31.1949 176.333C31.3399 176.188 31.2964 175.927 31.1224 175.738C30.9338 175.55 30.6727 175.521 30.5276 175.666C30.3826 175.826 30.4116 176.087 30.6002 176.261Z" fill="#C4204A"/>
<path d="M58.798 161.683C57.8697 162.887 65.1512 164.207 66.1376 161.698C67.1094 159.188 65.4413 152.298 65.4413 152.298L58.798 153.705C58.798 153.705 60.0164 160.117 58.798 161.683Z" fill="#F37A50"/>
<path d="M60.322 157.111C64.5046 156.672 67.4417 151.995 66.8822 146.666C66.3226 141.336 62.4784 137.371 58.2958 137.81C54.1132 138.249 51.1761 142.926 51.7356 148.256C52.2951 153.585 56.1394 157.55 60.322 157.111Z" fill="#F37A50"/>
<path d="M54.1999 149.832C54.0549 150.239 53.5907 150.456 53.1846 150.311C52.7784 150.166 52.5609 149.702 52.7059 149.296C52.851 148.89 53.3151 148.672 53.7213 148.817C54.1419 148.962 54.345 149.426 54.1999 149.832Z" fill="black"/>
<path d="M59.4073 148.701C59.2478 149.151 58.7546 149.383 58.3049 149.223C57.8553 149.064 57.6232 148.571 57.7828 148.121C57.9423 147.671 58.4355 147.439 58.8851 147.599C59.3348 147.758 59.5669 148.251 59.4073 148.701Z" fill="black"/>
<path d="M55.723 149.673C55.549 150.92 55.3169 152.458 55.3169 152.458C55.3169 152.458 56.1437 153.328 57.4927 152.719C56.8109 152.748 56.0712 152.617 55.9551 151.747C55.8536 150.877 55.723 149.673 55.723 149.673Z" fill="#DE623C"/>
<path d="M53.9679 148.019C53.8809 148.077 53.7648 148.077 53.6633 148.019C53.6488 148.019 53.3297 147.845 53.0106 147.961C52.793 148.048 52.6189 148.266 52.4884 148.6C52.4304 148.759 52.2563 148.832 52.0967 148.774C51.9372 148.716 51.8647 148.542 51.9227 148.382C52.1112 147.874 52.4159 147.526 52.8075 147.381C53.3877 147.164 53.9389 147.454 53.9534 147.468C54.0984 147.555 54.1565 147.729 54.0694 147.874C54.0549 147.961 54.0114 147.99 53.9679 148.019Z" fill="#020205"/>
<path d="M57.9278 147.149C58.0293 147.164 58.1454 147.135 58.2179 147.062C58.2324 147.048 58.479 146.786 58.8126 146.801C59.0447 146.801 59.2768 146.946 59.5088 147.236C59.6104 147.367 59.8134 147.381 59.944 147.28C60.0745 147.178 60.089 146.975 59.9875 146.844C59.6394 146.424 59.2477 146.206 58.8271 146.192C58.2179 146.177 57.7972 146.641 57.7682 146.656C57.6522 146.786 57.6667 146.975 57.7827 147.091C57.8262 147.12 57.8698 147.149 57.9278 147.149Z" fill="#020205"/>
<path d="M65.3398 150.065C62.5839 147.758 63.3382 144.234 63.3382 144.234C62.0037 144.321 61.6266 144.886 61.6266 144.886C60.5532 143.653 60.8143 142.493 60.8143 142.493C57.9133 142.174 57.072 144.234 54.8527 145.437C51.8211 147.091 47.4696 146.873 46.0336 143.03C45.8305 142.478 46.3527 141.927 46.9184 142.116C47.4406 142.29 48.0933 142.377 48.8186 142.159C48.8186 142.159 47.9338 141.579 47.6147 140.52C47.4406 139.94 48.0353 139.447 48.5865 139.693C49.4133 140.071 50.8058 140.259 52.9235 139.244C54.3305 138.562 57.0865 135.269 59.3348 135.168C61.1624 135.081 62.932 136.183 64.0924 138.127C64.0924 138.127 68.4584 137.416 70.141 141.985C71.7946 146.467 65.5864 153.386 65.5864 153.386C65.5864 153.386 66.0651 150.761 65.3398 150.065Z" fill="#020205"/>
<path d="M56.0566 154.764C55.8825 154.648 55.9261 154.387 56.1291 154.344C56.6368 154.213 57.4636 153.995 58.2324 153.705C59.0011 153.415 59.7699 153.038 60.2341 152.792C60.4226 152.69 60.6257 152.864 60.5677 153.067C60.3936 153.676 59.9295 154.677 58.7545 155.112C57.5796 155.548 56.5788 155.098 56.0566 154.764Z" fill="white"/>
<path d="M63.3672 146.917C62.4679 147.802 62.3229 149.122 63.0481 149.847C63.7734 150.587 65.0933 150.456 65.9781 149.571C66.8774 148.687 67.0225 147.367 66.2972 146.641C65.5865 145.916 64.2665 146.032 63.3672 146.917Z" fill="#F37A50"/>
<path d="M64.2375 149.47C64.194 149.455 64.165 149.426 64.136 149.397C63.7008 148.933 63.5993 148.367 63.8604 147.889C64.136 147.396 64.7162 147.12 65.2529 147.222C65.3979 147.251 65.4995 147.396 65.4705 147.541C65.4414 147.686 65.2964 147.787 65.1513 147.758C64.8612 147.7 64.5131 147.874 64.3536 148.15C64.2085 148.426 64.2665 148.73 64.5421 149.006C64.6437 149.122 64.6437 149.296 64.5276 149.397C64.4406 149.484 64.3391 149.513 64.2375 149.47Z" fill="#DE623C"/>
<path d="M50.7042 198.584C55.897 199.643 65.2383 201.471 70.1845 199.556C72.0557 196.872 72.5343 181.686 72.5343 181.686C73.071 166.064 71.1999 163.743 66.9789 158.507C65.2093 159.319 60.7707 160.015 58.8125 160.03C58.8125 160.03 54.3885 166.165 53.5327 170.633C52.6624 175.158 52.5609 183.194 52.4738 187.792C52.3723 192.898 51.3715 195.364 50.7042 198.584Z" fill="#652D86"/>
<path d="M67.588 163.235C70.6341 169.153 69.9378 175.71 61.1042 188.605C54.9106 188.068 53.7067 182.904 53.7067 182.904C53.7067 182.904 55.4038 176.493 57.623 168.443C59.8133 160.392 66.2535 160.653 67.588 163.235Z" fill="#652D86"/>
<path d="M40.5651 181.671L53.8228 182.73C53.8228 182.73 59.5087 181.7 61.1043 188.605C58.2613 190.824 50.9217 191.651 38.868 187.183C40.1445 185.457 40.5651 181.671 40.5651 181.671Z" fill="#652D86"/>
<path d="M58.8415 159.58L58.7255 163.148L67.6896 159.391L66.6017 156.505L58.8415 159.58Z" fill="white"/>
<path d="M125.768 73.2023C122.838 79.8891 115.034 82.9497 108.347 80.0197C101.66 77.0897 98.5999 69.2859 101.53 62.5991C104.46 55.9123 112.264 52.8517 118.95 55.7817C125.652 58.7117 128.712 66.5155 125.768 73.2023Z" fill="#FABA23"/>
<path d="M123.607 72.2595C120.996 78.3952 113.192 80.6725 107.68 76.9737C104.17 74.6819 102.255 70.4174 102.922 66.2399C103.952 59.1905 111.669 55.071 118.022 57.943C123.418 60.2638 126.058 66.7766 123.607 72.2595Z" fill="#FAD332"/>
<path d="M112.916 77.0316V74.7833C111.625 74.7688 110.291 74.3627 109.508 73.8115L110.044 72.3175C110.842 72.8541 112.003 73.2748 113.25 73.2603C114.831 73.2603 115.904 72.3465 115.89 71.07C115.89 69.8516 115.02 69.0973 113.366 68.4301C111.089 67.5453 109.682 66.5299 109.682 64.5863C109.682 62.7441 110.987 61.3371 113.032 60.989V58.7407H114.41V60.902C115.745 60.9455 116.659 61.2936 117.311 61.6707L116.76 63.1358C116.296 62.8747 115.382 62.3815 113.946 62.3815C112.235 62.3815 111.582 63.4113 111.596 64.2962C111.596 65.4566 112.423 66.0368 114.367 66.8345C116.659 67.7629 117.819 68.9233 117.834 70.896C117.834 72.6511 116.615 74.3046 114.323 74.6963V77.0171L112.916 77.0316Z" fill="#FABA23"/>
<path d="M149.498 34.8365C146.568 41.5233 138.764 44.5839 132.077 41.6538C125.391 38.7238 122.33 30.9201 125.26 24.2333C128.19 17.5464 135.994 14.4859 142.681 17.4159C149.382 20.3459 152.428 28.1351 149.498 34.8365Z" fill="#FABA23"/>
<path d="M147.337 33.8791C144.726 40.0148 136.922 42.2921 131.41 38.5933C127.9 36.3015 125.985 32.037 126.653 27.8595C127.683 20.8101 135.399 16.6907 141.752 19.5627C147.148 21.8835 149.788 28.4107 147.337 33.8791Z" fill="#FAD332"/>
<path d="M136.647 38.6658V36.4175C135.356 36.403 134.021 35.9968 133.238 35.4456L133.775 33.9516C134.572 34.4883 135.733 34.9089 136.98 34.8944C138.561 34.8944 139.635 33.9806 139.62 32.7042C139.62 31.4857 138.75 30.7315 137.096 30.0643C134.819 29.1794 133.412 28.1641 133.412 26.2204C133.412 24.3783 134.717 22.9713 136.763 22.6232V20.3749H138.141V22.5361C139.475 22.5796 140.389 22.9278 141.042 23.3049L140.49 24.7699C140.026 24.5088 139.112 24.0156 137.676 24.0156C135.965 24.0156 135.312 25.0455 135.327 25.9303C135.327 27.0907 136.153 27.6709 138.097 28.4687C140.389 29.397 141.549 30.5574 141.564 32.5301C141.564 34.2852 140.345 35.9388 138.054 36.3304V38.6512L136.647 38.6658Z" fill="#FABA23"/>
<path d="M240.416 42.591C247.634 41.4623 252.571 34.6956 251.442 27.4773C250.313 20.2591 243.547 15.3225 236.328 16.4513C229.11 17.5801 224.173 24.3467 225.302 31.565C226.431 38.7833 233.198 43.7198 240.416 42.591Z" fill="#FABA23"/>
<path d="M248.321 33.879C245.71 40.0147 237.906 42.292 232.395 38.5932C228.884 36.3014 226.97 32.0369 227.637 27.8594C228.667 20.81 236.383 16.6905 242.737 19.5625C248.133 21.8833 250.758 28.4106 248.321 33.879Z" fill="#FAD332"/>
<path d="M237.616 38.6658V36.4175C236.325 36.403 234.991 35.9968 234.208 35.4456L234.744 33.9516C235.542 34.4883 236.703 34.9089 237.95 34.8944C239.531 34.8944 240.604 33.9806 240.59 32.7042C240.59 31.4857 239.72 30.7315 238.066 30.0643C235.789 29.1794 234.382 28.1641 234.382 26.2204C234.382 24.3783 235.687 22.9713 237.732 22.6232V20.3749H239.11V22.5361C240.445 22.5796 241.359 22.9278 242.011 23.3049L241.46 24.7699C240.996 24.5088 240.082 24.0156 238.646 24.0156C236.935 24.0156 236.282 25.0455 236.296 25.9303C236.296 27.0907 237.123 27.6709 239.067 28.4687C241.359 29.397 242.519 30.5574 242.534 32.5301C242.534 34.2852 241.315 35.9388 239.023 36.3304V38.6512L237.616 38.6658Z" fill="#FABA23"/>
<path d="M277.447 73.2023C274.517 79.8891 266.713 82.9497 260.027 80.0197C253.34 77.0897 250.279 69.2859 253.209 62.5991C256.139 55.9123 263.943 52.8517 270.63 55.7817C277.317 58.7117 280.377 66.5155 277.447 73.2023Z" fill="#FABA23"/>
<path d="M275.271 72.2595C272.661 78.3952 264.857 80.6725 259.345 76.9737C255.835 74.6819 253.92 70.4174 254.587 66.2399C255.617 59.1905 263.334 55.071 269.687 57.943C275.083 60.2638 277.723 66.7766 275.271 72.2595Z" fill="#FAD332"/>
<path d="M264.581 77.0316V74.7833C263.29 74.7688 261.956 74.3627 261.172 73.8115L261.709 72.3175C262.507 72.8541 263.667 73.2748 264.915 73.2603C266.496 73.2603 267.569 72.3465 267.555 71.07C267.555 69.8516 266.684 69.0973 265.031 68.4301C262.754 67.5453 261.347 66.5299 261.347 64.5863C261.347 62.7441 262.652 61.3371 264.697 60.989V58.7407H266.075V60.902C267.41 60.9455 268.323 61.2936 268.976 61.6707L268.425 63.1358C267.961 62.8747 267.047 62.3815 265.611 62.3815C263.899 62.3815 263.247 63.4113 263.261 64.2962C263.261 65.4566 264.088 66.0368 266.032 66.8345C268.323 67.7629 269.484 68.9233 269.498 70.896C269.498 72.6511 268.28 74.3046 265.988 74.6963V77.0171L264.581 77.0316Z" fill="#FABA23"/>
<path d="M203.907 18.5327C200.977 25.2196 193.173 28.2801 186.486 25.3501C179.799 22.4201 176.739 14.6164 179.669 7.92955C182.599 1.24272 190.402 -1.81785 197.089 1.11217C203.776 4.04219 206.837 11.8459 203.907 18.5327Z" fill="#FABA23"/>
<path d="M201.731 17.5898C199.12 23.7255 191.316 26.0028 185.804 22.304C182.294 20.0122 180.379 15.7477 181.047 11.5702C182.076 4.52078 189.793 0.401348 196.146 3.27335C201.542 5.57965 204.182 12.1069 201.731 17.5898Z" fill="#FAD332"/>
<path d="M191.041 22.362V20.1138C189.75 20.0993 188.415 19.6931 187.632 19.1419L188.169 17.6479C188.966 18.1846 190.127 18.6052 191.374 18.5907C192.955 18.5907 194.029 17.6769 194.014 16.4005C194.014 15.182 193.144 14.4278 191.49 13.7605C189.213 12.8757 187.806 11.8604 187.806 9.9167C187.806 8.07456 189.111 6.66757 191.157 6.31945V4.07117H192.535V6.23242C193.869 6.27594 194.783 6.62406 195.436 7.00119L194.884 8.4662C194.42 8.20511 193.506 7.71194 192.07 7.71194C190.359 7.71194 189.706 8.7418 189.721 9.6266C189.721 10.787 190.547 11.3672 192.491 12.1505C194.783 13.0788 195.943 14.2392 195.958 16.2119C195.958 17.967 194.739 19.6206 192.448 20.0122V22.333L191.041 22.362Z" fill="#FABA23"/>
<g opacity="0.5">
<path d="M244.245 88.5922C243.607 88.5922 243.085 88.07 243.085 87.4318C243.085 86.4889 243.056 85.5316 243.012 84.5888C242.983 83.9506 243.476 83.3994 244.115 83.3704C244.753 83.3413 245.304 83.8345 245.333 84.4727C245.377 85.4591 245.406 86.4454 245.406 87.4318C245.406 88.07 244.883 88.5922 244.245 88.5922Z" fill="#652D86"/>
<path d="M243.563 79.8456C242.998 79.8456 242.505 79.4395 242.418 78.8593C242.127 76.9736 241.721 75.0735 241.228 73.2313C241.069 72.6076 241.431 71.9694 242.055 71.8098C242.679 71.6503 243.317 72.0129 243.476 72.6366C243.984 74.5658 244.405 76.5385 244.709 78.4967C244.811 79.1349 244.376 79.7296 243.738 79.8166C243.68 79.8456 243.622 79.8456 243.563 79.8456ZM132.803 79.8021C132.745 79.8021 132.687 79.8021 132.614 79.7876C131.976 79.6861 131.555 79.0914 131.642 78.4676C131.947 76.495 132.368 74.5223 132.89 72.6076C133.049 71.9839 133.688 71.6213 134.311 71.7808C134.935 71.9404 135.298 72.5786 135.138 73.2023C134.645 75.0445 134.239 76.9301 133.949 78.8303C133.862 79.396 133.369 79.8021 132.803 79.8021ZM240.546 68.5172C240.082 68.5172 239.633 68.2271 239.459 67.7774C238.777 65.9933 237.994 64.2237 237.123 62.5266C236.833 61.9609 237.065 61.2501 237.631 60.96C238.197 60.6699 238.907 60.902 239.197 61.4677C240.097 63.2373 240.924 65.0795 241.634 66.9506C241.866 67.5453 241.562 68.2271 240.967 68.4447C240.822 68.4882 240.677 68.5172 240.546 68.5172ZM135.834 68.4737C135.689 68.4737 135.559 68.4447 135.414 68.4011C134.819 68.1691 134.514 67.5018 134.747 66.9071C135.457 65.0505 136.284 63.2083 137.183 61.4387C137.474 60.873 138.17 60.6409 138.75 60.931C139.316 61.2211 139.548 61.9174 139.258 62.4976C138.387 64.1947 137.604 65.9643 136.922 67.7484C136.748 68.1981 136.299 68.4737 135.834 68.4737ZM235.223 58.0735C234.846 58.0735 234.469 57.885 234.251 57.5514C233.207 55.9558 232.075 54.3893 230.872 52.8952C230.465 52.4021 230.538 51.6623 231.046 51.2562C231.539 50.85 232.279 50.9226 232.685 51.4302C233.932 52.9823 235.122 54.6068 236.209 56.2749C236.558 56.8116 236.412 57.5369 235.876 57.885C235.658 58.0155 235.441 58.0735 235.223 58.0735ZM141.172 58.0445C140.955 58.0445 140.737 57.9865 140.534 57.856C139.997 57.5078 139.838 56.7826 140.2 56.2459C141.288 54.5778 142.478 52.9533 143.725 51.4012C144.131 50.908 144.857 50.821 145.364 51.2272C145.857 51.6333 145.944 52.3586 145.538 52.8662C144.334 54.3457 143.203 55.9123 142.159 57.5078C141.912 57.856 141.549 58.0445 141.172 58.0445ZM227.84 48.9644C227.55 48.9644 227.245 48.8483 227.013 48.6308C225.664 47.2818 224.228 45.9908 222.749 44.7869C222.256 44.3808 222.169 43.6555 222.575 43.1478C222.981 42.6547 223.706 42.5676 224.214 42.9738C225.766 44.2212 227.26 45.5702 228.667 46.9917C229.116 47.4413 229.116 48.1811 228.667 48.6308C228.435 48.8483 228.13 48.9644 227.84 48.9644ZM148.555 48.9354C148.265 48.9354 147.961 48.8193 147.729 48.6017C147.279 48.1521 147.279 47.4123 147.729 46.9627C149.136 45.5557 150.63 44.2067 152.182 42.9593C152.675 42.5531 153.415 42.6257 153.821 43.1333C154.227 43.6265 154.154 44.3663 153.647 44.7724C152.167 45.9763 150.731 47.2673 149.368 48.6162C149.15 48.8193 148.845 48.9354 148.555 48.9354ZM218.731 41.5813C218.513 41.5813 218.296 41.5233 218.093 41.3927C216.497 40.3484 214.814 39.3765 213.117 38.5062C212.552 38.2161 212.32 37.5199 212.61 36.9397C212.9 36.374 213.596 36.1419 214.176 36.432C215.946 37.3313 217.686 38.3467 219.355 39.4345C219.891 39.7827 220.051 40.5079 219.688 41.0446C219.485 41.3927 219.108 41.5813 218.731 41.5813ZM157.665 41.5523C157.287 41.5523 156.91 41.3637 156.693 41.0301C156.345 40.4934 156.49 39.7682 157.026 39.42C158.694 38.3322 160.435 37.3313 162.219 36.4175C162.785 36.1274 163.496 36.3595 163.786 36.9252C164.076 37.4909 163.844 38.2016 163.278 38.4917C161.581 39.362 159.898 40.3339 158.303 41.3637C158.1 41.4943 157.882 41.5523 157.665 41.5523ZM208.302 36.2434C208.157 36.2434 208.026 36.2144 207.881 36.1709C206.097 35.4892 204.255 34.8945 202.413 34.3868C201.789 34.2272 201.426 33.589 201.586 32.9653C201.745 32.3416 202.384 31.9789 203.007 32.1385C204.937 32.6462 206.851 33.2699 208.708 33.9951C209.303 34.2272 209.607 34.8945 209.375 35.4892C209.201 35.9678 208.766 36.2434 208.302 36.2434ZM168.108 36.2289C167.644 36.2289 167.209 35.9388 167.02 35.4892C166.788 34.8945 167.093 34.2127 167.688 33.9951C169.544 33.2844 171.459 32.6607 173.388 32.153C174.012 31.9935 174.65 32.3561 174.81 32.9798C174.969 33.6035 174.606 34.2417 173.983 34.4013C172.141 34.8945 170.298 35.4892 168.514 36.1709C168.384 36.1999 168.239 36.2289 168.108 36.2289ZM196.973 33.2119C196.915 33.2119 196.857 33.2119 196.785 33.1974C194.899 32.9073 192.984 32.7042 191.07 32.6027C190.431 32.5737 189.938 32.0225 189.967 31.3842C189.996 30.746 190.548 30.2528 191.186 30.2819C193.173 30.3834 195.175 30.601 197.147 30.9056C197.786 31.0071 198.206 31.6018 198.119 32.2255C198.032 32.8057 197.539 33.2119 196.973 33.2119ZM179.437 33.2119C178.871 33.2119 178.378 32.8057 178.291 32.2255C178.189 31.5873 178.624 30.9926 179.263 30.9056C181.221 30.601 183.222 30.3834 185.224 30.2819C185.862 30.2528 186.414 30.746 186.443 31.3842C186.472 32.0225 185.978 32.5737 185.34 32.6027C183.426 32.7042 181.511 32.8928 179.625 33.1974C179.553 33.1974 179.495 33.2119 179.437 33.2119Z" fill="#652D86"/>
<path d="M132.121 88.5922C131.483 88.5922 130.961 88.07 130.961 87.4318C130.961 86.4454 130.99 85.4591 131.033 84.4727C131.062 83.8345 131.613 83.3413 132.252 83.3704C132.89 83.3994 133.383 83.9506 133.354 84.5888C133.311 85.5316 133.282 86.4889 133.282 87.4318C133.282 88.07 132.759 88.5922 132.121 88.5922Z" fill="#652D86"/>
<path d="M147.83 88.5922C147.192 88.5922 146.67 88.0701 146.67 87.4318C146.67 86.4455 146.699 85.4301 146.771 84.4438C146.815 83.8056 147.366 83.3269 148.004 83.3704C148.642 83.4139 149.121 83.9651 149.078 84.6034C149.005 85.5317 148.976 86.489 148.976 87.4173C148.99 88.0701 148.468 88.5922 147.83 88.5922Z" fill="#652D86"/>
<path d="M148.744 79.9907C148.657 79.9907 148.584 79.9762 148.497 79.9617C147.874 79.8311 147.468 79.2074 147.613 78.5837C148.033 76.6545 148.599 74.7398 149.281 72.8977C149.498 72.303 150.18 71.9984 150.775 72.216C151.369 72.4335 151.674 73.1153 151.456 73.71C150.804 75.4506 150.282 77.2637 149.875 79.0769C149.759 79.6135 149.281 79.9907 148.744 79.9907ZM227.608 79.9617C227.071 79.9617 226.593 79.5845 226.477 79.0479C226.085 77.2347 225.548 75.4216 224.896 73.681C224.678 73.0863 224.968 72.419 225.577 72.187C226.172 71.9694 226.839 72.2595 227.071 72.8687C227.768 74.7108 228.319 76.6255 228.739 78.5547C228.87 79.1784 228.478 79.8021 227.855 79.9327C227.782 79.9472 227.695 79.9617 227.608 79.9617ZM152.762 69.2279C152.573 69.2279 152.385 69.1844 152.211 69.0829C151.645 68.7783 151.442 68.0675 151.747 67.5018C152.689 65.7757 153.777 64.1076 154.952 62.5266C155.344 62.0189 156.069 61.9174 156.577 62.2945C157.084 62.6861 157.186 63.4114 156.809 63.9191C155.692 65.4131 154.677 66.9942 153.777 68.6187C153.574 69.0104 153.168 69.2279 152.762 69.2279ZM223.59 69.2134C223.184 69.2134 222.778 68.9958 222.575 68.6042C221.675 66.9796 220.66 65.3986 219.543 63.9046C219.151 63.3969 219.268 62.6716 219.775 62.28C220.283 61.8884 221.008 62.0044 221.4 62.5121C222.589 64.0931 223.663 65.7612 224.605 67.4873C224.91 68.053 224.707 68.7493 224.141 69.0684C223.967 69.1699 223.779 69.2134 223.59 69.2134ZM159.652 60.0462C159.362 60.0462 159.057 59.9302 158.825 59.7126C158.375 59.263 158.375 58.5232 158.825 58.0735C160.217 56.6811 161.726 55.3756 163.293 54.2007C163.8 53.8236 164.525 53.9251 164.917 54.4328C165.294 54.9404 165.193 55.6802 164.685 56.0573C163.191 57.1742 161.784 58.4072 160.464 59.7126C160.246 59.9302 159.956 60.0462 159.652 60.0462ZM216.7 60.0317C216.41 60.0317 216.105 59.9157 215.873 59.6981C214.553 58.3781 213.132 57.1452 211.652 56.0428C211.145 55.6657 211.029 54.9259 211.42 54.4183C211.797 53.9106 212.537 53.7945 213.045 54.1862C214.626 55.3611 216.12 56.6665 217.527 58.059C217.977 58.5087 217.977 59.2485 217.527 59.6981C217.295 59.9157 216.99 60.0317 216.7 60.0317ZM168.848 53.1563C168.442 53.1563 168.036 52.9387 167.833 52.5471C167.528 51.9814 167.731 51.2852 168.297 50.9661C170.023 50.0232 171.836 49.1964 173.678 48.5002C174.273 48.2826 174.94 48.5872 175.172 49.1819C175.39 49.7766 175.085 50.4439 174.49 50.676C172.75 51.3287 171.038 52.112 169.414 52.9968C169.225 53.1128 169.037 53.1563 168.848 53.1563ZM207.504 53.1563C207.315 53.1563 207.127 53.1128 206.953 53.0113C205.314 52.112 203.602 51.3432 201.861 50.6905C201.267 50.4729 200.962 49.8057 201.18 49.1964C201.397 48.6017 202.065 48.2971 202.674 48.5147C204.516 49.1964 206.329 50.0232 208.055 50.9806C208.621 51.2852 208.824 51.9959 208.519 52.5616C208.316 52.9387 207.91 53.1563 207.504 53.1563ZM179.596 49.1529C179.06 49.1529 178.581 48.7758 178.465 48.2391C178.334 47.6154 178.726 46.9917 179.35 46.8611C181.264 46.4405 183.237 46.1649 185.21 46.0198C185.848 45.9763 186.399 46.455 186.443 47.0932C186.486 47.7314 186.007 48.2826 185.369 48.3261C183.513 48.4567 181.656 48.7178 179.843 49.1094C179.756 49.1384 179.669 49.1529 179.596 49.1529ZM196.741 49.1384C196.654 49.1384 196.582 49.1239 196.495 49.1094C194.681 48.7178 192.825 48.4567 190.968 48.3261C190.33 48.2826 189.851 47.7314 189.895 47.0932C189.938 46.455 190.49 45.9763 191.128 46.0198C193.1 46.1649 195.073 46.4405 196.988 46.8466C197.611 46.9772 198.018 47.6009 197.873 48.2246C197.757 48.7758 197.278 49.1384 196.741 49.1384Z" fill="#652D86"/>
<path d="M228.536 88.5921C227.898 88.5921 227.376 88.07 227.376 87.4317C227.376 86.4889 227.347 85.5461 227.274 84.6178C227.231 83.9795 227.709 83.4283 228.348 83.3848C228.986 83.3413 229.537 83.82 229.581 84.4582C229.653 85.4445 229.682 86.4454 229.682 87.4462C229.697 88.07 229.174 88.5921 228.536 88.5921Z" fill="#652D86"/>
<path d="M244.042 89.2739C244.042 89.2739 244.028 89.2739 244.042 89.2739C243.81 89.2739 243.592 89.1579 243.462 88.9838L236.05 79.0188C235.818 78.6997 235.876 78.2501 236.195 78.0035C236.514 77.7714 236.964 77.8294 237.21 78.1485L244.057 87.3592L250.874 78.8883C251.121 78.5837 251.585 78.5256 251.889 78.7722C252.194 79.0188 252.252 79.483 252.005 79.7876L244.593 88.9838C244.463 89.1724 244.26 89.2739 244.042 89.2739Z" fill="#652D86"/>
<path d="M147.801 89.2739C147.569 89.2739 147.351 89.1579 147.221 88.9838L139.823 79.0188C139.591 78.6997 139.649 78.2501 139.968 78.0035C140.287 77.7714 140.737 77.8294 140.984 78.1485L147.83 87.3592L154.647 78.8883C154.894 78.5837 155.358 78.5256 155.663 78.7722C155.967 79.0188 156.025 79.483 155.779 79.7876L148.367 88.9838C148.236 89.1724 148.019 89.2739 147.801 89.2739Z" fill="#652D86"/>
</g>
<path d="M295.071 245.552V248.496C295.071 249.642 294.143 250.57 292.997 250.57H257.126C255.98 250.57 255.051 249.642 255.051 248.496V245.552C255.051 245.044 255.24 244.565 255.545 244.203C255.922 243.753 256.502 243.463 257.126 243.463H292.997C293.635 243.463 294.201 243.753 294.578 244.203C294.882 244.565 295.071 245.029 295.071 245.552Z" fill="#FAD332"/>
<path d="M258.068 243.463H257.024V250.556H258.068V243.463Z" fill="#FABA23"/>
<path d="M262.435 243.463H261.39V250.556H262.435V243.463Z" fill="#FABA23"/>
<path d="M266.815 243.463H265.771V250.556H266.815V243.463Z" fill="#FABA23"/>
<path d="M271.181 243.463H270.137V250.556H271.181V243.463Z" fill="#FABA23"/>
<path d="M275.547 243.463H274.503V250.556H275.547V243.463Z" fill="#FABA23"/>
<path d="M279.913 243.463H278.869V250.556H279.913V243.463Z" fill="#FABA23"/>
<path d="M284.279 243.463H283.235V250.556H284.279V243.463Z" fill="#FABA23"/>
<path d="M288.66 243.463H287.615V250.556H288.66V243.463Z" fill="#FABA23"/>
<path d="M293.026 243.463H291.981V250.556H293.026V243.463Z" fill="#FABA23"/>
<path d="M294.578 244.202H255.53C255.907 243.753 256.487 243.463 257.111 243.463H292.982C293.62 243.463 294.186 243.753 294.578 244.202Z" fill="#FABA23"/>
<path d="M294.578 249.83H255.53C255.907 250.28 256.487 250.57 257.111 250.57H292.982C293.62 250.57 294.186 250.28 294.578 249.83Z" fill="#FABA23"/>
<path d="M297.566 238.444V241.388C297.566 242.534 296.637 243.463 295.491 243.463H259.62C258.475 243.463 257.546 242.534 257.546 241.388V238.444C257.546 237.936 257.735 237.457 258.039 237.095C258.417 236.645 258.997 236.355 259.62 236.355H295.491C296.13 236.355 296.695 236.645 297.073 237.095C297.392 237.472 297.566 237.936 297.566 238.444Z" fill="#FAD332"/>
<path d="M260.578 236.37H259.533V243.463H260.578V236.37Z" fill="#FABA23"/>
<path d="M264.944 236.37H263.899V243.463H264.944V236.37Z" fill="#FABA23"/>
<path d="M269.324 236.37H268.28V243.463H269.324V236.37Z" fill="#FABA23"/>
<path d="M273.69 236.37H272.646V243.463H273.69V236.37Z" fill="#FABA23"/>
<path d="M278.056 236.37H277.012V243.463H278.056V236.37Z" fill="#FABA23"/>
<path d="M282.422 236.37H281.378V243.463H282.422V236.37Z" fill="#FABA23"/>
<path d="M286.788 236.37H285.744V243.463H286.788V236.37Z" fill="#FABA23"/>
<path d="M291.154 236.37H290.11V243.463H291.154V236.37Z" fill="#FABA23"/>
<path d="M295.535 236.37H294.491V243.463H295.535V236.37Z" fill="#FABA23"/>
<path d="M297.087 237.109H258.039C258.417 236.66 258.997 236.37 259.62 236.37H295.491C296.13 236.37 296.695 236.66 297.087 237.109Z" fill="#FABA23"/>
<path d="M297.087 242.737H258.039C258.417 243.187 258.997 243.477 259.62 243.477H295.491C296.13 243.463 296.695 243.187 297.087 242.737Z" fill="#FABA23"/>
<path d="M295.622 231.365V234.31C295.622 235.456 294.694 236.384 293.548 236.384H257.677C256.531 236.384 255.603 235.456 255.603 234.31V231.365C255.603 230.858 255.791 230.379 256.096 230.016C256.473 229.567 257.053 229.277 257.677 229.277H293.548C294.186 229.277 294.752 229.567 295.129 230.016C295.448 230.394 295.622 230.858 295.622 231.365Z" fill="#FAD332"/>
<path d="M258.634 229.291H257.59V236.384H258.634V229.291Z" fill="#FABA23"/>
<path d="M263 229.291H261.956V236.384H263V229.291Z" fill="#FABA23"/>
<path d="M267.366 229.291H266.322V236.384H267.366V229.291Z" fill="#FABA23"/>
<path d="M271.747 229.291H270.702V236.384H271.747V229.291Z" fill="#FABA23"/>
<path d="M276.113 229.291H275.068V236.384H276.113V229.291Z" fill="#FABA23"/>
<path d="M280.479 229.291H279.434V236.384H280.479V229.291Z" fill="#FABA23"/>
<path d="M284.845 229.291H283.8V236.384H284.845V229.291Z" fill="#FABA23"/>
<path d="M289.211 229.291H288.166V236.384H289.211V229.291Z" fill="#FABA23"/>
<path d="M293.591 229.291H292.547V236.384H293.591V229.291Z" fill="#FABA23"/>
<path d="M295.143 230.031H256.096C256.473 229.581 257.053 229.291 257.677 229.291H293.548C294.186 229.291 294.752 229.567 295.143 230.031Z" fill="#FABA23"/>
<path d="M295.143 235.644H256.096C256.473 236.094 257.053 236.384 257.677 236.384H293.548C294.186 236.384 294.752 236.094 295.143 235.644Z" fill="#FABA23"/>
<path d="M296.434 224.417V227.362C296.434 228.508 295.506 229.436 294.36 229.436H258.489C257.343 229.436 256.415 228.508 256.415 227.362V224.417C256.415 223.91 256.603 223.431 256.908 223.068C257.285 222.619 257.865 222.329 258.489 222.329H294.36C294.998 222.329 295.564 222.619 295.941 223.068C296.246 223.431 296.434 223.895 296.434 224.417Z" fill="#FAD332"/>
<path d="M259.432 222.329H258.387V229.422H259.432V222.329Z" fill="#FABA23"/>
<path d="M263.798 222.329H262.753V229.422H263.798V222.329Z" fill="#FABA23"/>
<path d="M268.178 222.329H267.134V229.422H268.178V222.329Z" fill="#FABA23"/>
<path d="M272.544 222.329H271.5V229.422H272.544V222.329Z" fill="#FABA23"/>
<path d="M276.91 222.329H275.866V229.422H276.91V222.329Z" fill="#FABA23"/>
<path d="M281.276 222.329H280.232V229.422H281.276V222.329Z" fill="#FABA23"/>
<path d="M285.642 222.329H284.598V229.422H285.642V222.329Z" fill="#FABA23"/>
<path d="M290.023 222.329H288.979V229.422H290.023V222.329Z" fill="#FABA23"/>
<path d="M294.389 222.329H293.345V229.422H294.389V222.329Z" fill="#FABA23"/>
<path d="M295.941 223.068H256.893C257.271 222.619 257.851 222.329 258.474 222.329H294.346C294.984 222.329 295.549 222.619 295.941 223.068Z" fill="#FABA23"/>
<path d="M295.941 228.696H256.893C257.271 229.146 257.851 229.436 258.474 229.436H294.346C294.984 229.422 295.549 229.146 295.941 228.696Z" fill="#FABA23"/>
<path d="M291.952 217.209V220.153C291.952 221.299 291.024 222.228 289.878 222.228H254.007C252.861 222.228 251.933 221.299 251.933 220.153V217.209C251.933 216.701 252.121 216.222 252.426 215.86C252.803 215.41 253.383 215.12 254.007 215.12H289.878C290.516 215.12 291.082 215.41 291.459 215.86C291.778 216.222 291.952 216.701 291.952 217.209Z" fill="#FAD332"/>
<path d="M254.964 215.134H253.92V222.227H254.964V215.134Z" fill="#FABA23"/>
<path d="M259.33 215.134H258.286V222.227H259.33V215.134Z" fill="#FABA23"/>
<path d="M263.696 215.134H262.652V222.227H263.696V215.134Z" fill="#FABA23"/>
<path d="M268.077 215.134H267.032V222.227H268.077V215.134Z" fill="#FABA23"/>
<path d="M272.443 215.134H271.399V222.227H272.443V215.134Z" fill="#FABA23"/>
<path d="M276.809 215.134H275.765V222.227H276.809V215.134Z" fill="#FABA23"/>
<path d="M281.175 215.134H280.131V222.227H281.175V215.134Z" fill="#FABA23"/>
<path d="M285.541 215.134H284.497V222.227H285.541V215.134Z" fill="#FABA23"/>
<path d="M289.922 215.134H288.877V222.227H289.922V215.134Z" fill="#FABA23"/>
<path d="M291.459 215.86H252.411C252.789 215.41 253.369 215.12 253.992 215.12H289.863C290.516 215.134 291.082 215.41 291.459 215.86Z" fill="#FABA23"/>
<path d="M291.459 221.487H252.411C252.789 221.937 253.369 222.227 253.992 222.227H289.863C290.516 222.227 291.082 221.937 291.459 221.487Z" fill="#FABA23"/>
<path d="M296.362 210.188V213.133C296.362 214.278 295.433 215.207 294.288 215.207H258.416C257.271 215.207 256.342 214.278 256.342 213.133V210.188C256.342 209.68 256.531 209.202 256.835 208.839C257.213 208.389 257.793 208.099 258.416 208.099H294.288C294.926 208.099 295.491 208.389 295.869 208.839C296.173 209.216 296.362 209.68 296.362 210.188Z" fill="#FAD332"/>
<path d="M259.359 208.114H258.315V215.207H259.359V208.114Z" fill="#FABA23"/>
<path d="M263.74 208.114H262.696V215.207H263.74V208.114Z" fill="#FABA23"/>
<path d="M268.106 208.114H267.062V215.207H268.106V208.114Z" fill="#FABA23"/>
<path d="M272.472 208.114H271.427V215.207H272.472V208.114Z" fill="#FABA23"/>
<path d="M276.838 208.114H275.794V215.207H276.838V208.114Z" fill="#FABA23"/>
<path d="M281.204 208.114H280.16V215.207H281.204V208.114Z" fill="#FABA23"/>
<path d="M285.57 208.114H284.526V215.207H285.57V208.114Z" fill="#FABA23"/>
<path d="M289.95 208.114H288.906V215.207H289.95V208.114Z" fill="#FABA23"/>
<path d="M294.317 208.114H293.272V215.207H294.317V208.114Z" fill="#FABA23"/>
<path d="M295.869 208.854H256.821C257.198 208.404 257.778 208.114 258.402 208.114H294.273C294.911 208.114 295.477 208.404 295.869 208.854Z" fill="#FABA23"/>
<path d="M295.869 214.467H256.821C257.198 214.917 257.778 215.207 258.402 215.207H294.273C294.911 215.207 295.477 214.931 295.869 214.467Z" fill="#FABA23"/>
<path d="M294.795 203.081V206.025C294.795 207.171 293.867 208.099 292.721 208.099H256.85C255.704 208.099 254.776 207.171 254.776 206.025V203.081C254.776 202.573 254.964 202.094 255.269 201.732C255.646 201.282 256.226 200.992 256.85 200.992H292.721C293.359 200.992 293.925 201.282 294.302 201.732C294.607 202.094 294.795 202.558 294.795 203.081Z" fill="#FAD332"/>
<path d="M257.807 200.992H256.763V208.085H257.807V200.992Z" fill="#FABA23"/>
<path d="M262.173 200.992H261.129V208.085H262.173V200.992Z" fill="#FABA23"/>
<path d="M266.539 200.992H265.495V208.085H266.539V200.992Z" fill="#FABA23"/>
<path d="M270.905 200.992H269.861V208.085H270.905V200.992Z" fill="#FABA23"/>
<path d="M275.271 200.992H274.227V208.085H275.271V200.992Z" fill="#FABA23"/>
<path d="M279.652 200.992H278.608V208.085H279.652V200.992Z" fill="#FABA23"/>
<path d="M284.018 200.992H282.974V208.085H284.018V200.992Z" fill="#FABA23"/>
<path d="M288.384 200.992H287.34V208.085H288.384V200.992Z" fill="#FABA23"/>
<path d="M292.75 200.992H291.706V208.085H292.75V200.992Z" fill="#FABA23"/>
<path d="M294.302 201.732H255.254C255.632 201.282 256.212 200.992 256.835 200.992H292.706C293.359 200.992 293.925 201.282 294.302 201.732Z" fill="#FABA23"/>
<path d="M294.302 207.359H255.254C255.632 207.809 256.212 208.099 256.835 208.099H292.706C293.359 208.099 293.925 207.809 294.302 207.359Z" fill="#FABA23"/>
<path d="M296.942 196.017V198.961C296.942 200.107 296.014 201.035 294.868 201.035H258.997C257.851 201.035 256.922 200.107 256.922 198.961V196.017C256.922 195.509 257.111 195.03 257.416 194.668C257.793 194.218 258.373 193.928 258.997 193.928H294.868C295.506 193.928 296.072 194.218 296.449 194.668C296.753 195.045 296.942 195.509 296.942 196.017Z" fill="#FAD332"/>
<path d="M259.939 193.942H258.895V201.035H259.939V193.942Z" fill="#FABA23"/>
<path d="M264.32 193.942H263.276V201.035H264.32V193.942Z" fill="#FABA23"/>
<path d="M268.686 193.942H267.642V201.035H268.686V193.942Z" fill="#FABA23"/>
<path d="M273.052 193.942H272.008V201.035H273.052V193.942Z" fill="#FABA23"/>
<path d="M277.418 193.942H276.374V201.035H277.418V193.942Z" fill="#FABA23"/>
<path d="M281.784 193.942H280.74V201.035H281.784V193.942Z" fill="#FABA23"/>
<path d="M286.165 193.942H285.12V201.035H286.165V193.942Z" fill="#FABA23"/>
<path d="M290.531 193.942H289.486V201.035H290.531V193.942Z" fill="#FABA23"/>
<path d="M294.897 193.942H293.852V201.035H294.897V193.942Z" fill="#FABA23"/>
<path d="M296.449 194.682H257.401C257.778 194.232 258.358 193.942 258.982 193.942H294.853C295.491 193.942 296.072 194.218 296.449 194.682Z" fill="#FABA23"/>
<path d="M296.449 200.296H257.401C257.778 200.745 258.358 201.035 258.982 201.035H294.853C295.491 201.035 296.072 200.745 296.449 200.296Z" fill="#FABA23"/>
<path d="M262.534 249.821C273.763 246.118 279.865 234.012 276.161 222.783C272.458 211.554 260.353 205.453 249.123 209.156C237.894 212.859 231.793 224.965 235.496 236.194C239.199 247.423 251.305 253.524 262.534 249.821Z" fill="#FABA23"/>
<path d="M272.544 234.89C269.556 244.13 259.649 249.207 250.41 246.219C249.452 245.914 248.524 245.522 247.654 245.073C246.189 244.304 244.854 243.347 243.694 242.244C243.259 241.823 242.838 241.388 242.446 240.924C239.56 237.544 238.022 233.135 238.255 228.58C238.327 227.086 238.603 225.592 239.081 224.098C241.301 217.208 247.378 212.639 254.167 211.987C256.473 211.769 258.866 212.001 261.216 212.77C263.247 213.423 265.089 214.423 266.67 215.671C267.149 216.048 267.613 216.44 268.048 216.86C269.223 218.006 270.238 219.297 271.05 220.704C273.444 224.853 274.14 229.973 272.544 234.89Z" fill="#FAD332"/>
<path d="M266.67 215.656L242.446 240.91C239.56 237.53 238.022 233.12 238.255 228.566L254.167 211.987C256.473 211.769 258.866 212.001 261.216 212.77C263.261 213.408 265.089 214.409 266.67 215.656Z" fill="#FAEE6C"/>
<path d="M271.05 220.69L247.668 245.058C246.203 244.289 244.869 243.332 243.708 242.23L268.062 216.846C269.223 217.992 270.238 219.283 271.05 220.69Z" fill="#FAEE6C"/>
<path d="M256.995 212.784C254.921 212.567 254.544 212.77 253.601 214.612C253.833 212.567 253.63 212.175 251.773 211.218C253.847 211.435 254.225 211.232 255.167 209.39C254.95 211.464 255.153 211.841 256.995 212.784Z" fill="white"/>
<path d="M249.641 245.798C247.886 245.609 247.567 245.783 246.784 247.335C246.972 245.609 246.813 245.29 245.246 244.478C247.001 244.667 247.32 244.492 248.103 242.94C247.915 244.696 248.089 245.015 249.641 245.798Z" fill="white"/>
<path d="M269.687 158.434C256.734 158.434 246.189 147.889 246.189 134.936C246.189 121.983 256.734 111.438 269.687 111.438C282.64 111.438 293.185 121.983 293.185 134.936C293.185 147.889 282.654 158.434 269.687 158.434ZM269.687 112.598C257.372 112.598 247.349 122.621 247.349 134.936C247.349 147.251 257.372 157.274 269.687 157.274C282.002 157.274 292.025 147.251 292.025 134.936C292.025 122.621 282.002 112.598 269.687 112.598Z" fill="#E3EAFF"/>
<path d="M269.687 148.266C267.961 148.266 266.568 146.874 266.568 145.147V102.038C266.568 100.312 267.961 98.9198 269.687 98.9198C271.413 98.9198 272.806 100.312 272.806 102.038V145.147C272.806 146.874 271.413 148.266 269.687 148.266Z" fill="#E3EAFF"/>
<path d="M269.687 158.434C256.734 158.434 246.189 147.889 246.189 134.936C246.189 121.983 256.734 111.438 269.687 111.438C282.64 111.438 293.185 121.983 293.185 134.936C293.185 147.889 282.654 158.434 269.687 158.434ZM269.687 112.598C257.372 112.598 247.349 122.621 247.349 134.936C247.349 147.251 257.372 157.274 269.687 157.274C282.002 157.274 292.025 147.251 292.025 134.936C292.025 122.621 282.002 112.598 269.687 112.598Z" fill="#E3EAFF"/>
<path d="M269.687 148.266C267.961 148.266 266.568 146.874 266.568 145.147V102.038C266.568 100.312 267.961 98.9198 269.687 98.9198C271.413 98.9198 272.806 100.312 272.806 102.038V145.147C272.806 146.874 271.413 148.266 269.687 148.266Z" fill="#E3EAFF"/>
<path d="M269.905 150.833C269.861 150.833 269.817 150.833 269.788 150.833C268.831 150.79 267.946 150.326 267.395 149.557L254.442 132.963C253.427 131.571 253.731 129.627 255.124 128.612C256.516 127.596 258.46 127.901 259.475 129.293L270.093 142.696L280.044 129.105C281.16 127.799 283.133 127.64 284.439 128.757C285.744 129.874 285.904 131.846 284.787 133.152L272.269 149.746C271.689 150.427 270.818 150.833 269.905 150.833Z" fill="#E3EAFF"/>
<path d="M114.004 156.041C101.051 156.041 90.5061 145.496 90.5061 132.543C90.5061 119.589 101.051 109.044 114.004 109.044C126.957 109.044 137.502 119.589 137.502 132.543C137.502 145.496 126.957 156.041 114.004 156.041ZM114.004 110.219C101.69 110.219 91.6665 120.242 91.6665 132.557C91.6665 144.872 101.69 154.895 114.004 154.895C126.319 154.895 136.342 144.872 136.342 132.557C136.342 120.228 126.319 110.219 114.004 110.219Z" fill="#E3EAFF"/>
<path d="M126.021 144.567C132.66 137.928 132.66 127.165 126.021 120.526C119.382 113.887 108.618 113.887 101.98 120.526C95.3407 127.165 95.3407 137.928 101.98 144.567C108.618 151.206 119.382 151.206 126.021 144.567Z" fill="#E3EAFF"/>
<path d="M126.885 139.679C124.39 144.219 119.56 147.294 114.004 147.294C108.449 147.294 103.619 144.219 101.124 139.679C102.705 136.865 105.171 134.631 108.159 133.34C106.882 131.933 106.114 130.077 106.114 128.031C106.114 123.665 109.653 120.141 114.004 120.141C118.37 120.141 121.895 123.68 121.895 128.031C121.895 130.077 121.112 131.933 119.85 133.34C122.838 134.631 125.304 136.88 126.885 139.679Z" fill="#95A6DB"/>
<path d="M294.201 172.823L284.337 167.529C284.062 168.051 283.786 168.559 283.496 169.081C283.09 169.835 284.99 171.634 287.717 173.099C290.458 174.564 292.997 175.158 293.403 174.404C293.461 174.346 294.201 172.823 294.201 172.823Z" fill="#FABA23"/>
<path d="M294.215 172.939C293.809 173.693 291.27 173.099 288.529 171.634C285.788 170.169 283.902 168.355 284.308 167.616C284.714 166.861 287.253 167.456 289.994 168.921C292.721 170.386 294.607 172.199 294.215 172.939Z" fill="#FAD332"/>
<path d="M250.395 192.753L240.416 194.377C240.503 194.9 240.59 195.422 240.677 195.944C240.793 196.698 243.143 196.959 245.913 196.495C248.684 196.046 250.83 195.059 250.7 194.305C250.7 194.247 250.395 192.753 250.395 192.753Z" fill="#FABA23"/>
<path d="M250.468 192.825C250.584 193.58 248.452 194.566 245.681 195.016C242.911 195.465 240.561 195.219 240.445 194.465C240.329 193.71 242.461 192.724 245.232 192.274C248.002 191.81 250.352 192.071 250.468 192.825Z" fill="#FAD332"/>
<path d="M262.318 175.245L253.253 170.778C253.021 171.256 252.789 171.735 252.557 172.199C252.223 172.895 253.978 174.447 256.502 175.695C259.026 176.928 261.332 177.377 261.68 176.696C261.695 176.638 262.318 175.245 262.318 175.245Z" fill="#FABA23"/>
<path d="M262.333 175.347C261.999 176.043 259.679 175.593 257.155 174.346C254.631 173.113 252.876 171.546 253.209 170.85C253.543 170.154 255.864 170.604 258.388 171.851C260.911 173.099 262.667 174.665 262.333 175.347Z" fill="#FAD332"/>
<path d="M248.8 158.405L238.356 160.102C238.443 160.653 238.53 161.19 238.617 161.741C238.748 162.539 241.199 162.8 244.1 162.321C247.001 161.843 249.249 160.827 249.119 160.03C249.119 159.972 248.8 158.405 248.8 158.405Z" fill="#FABA23"/>
<path d="M248.872 158.477C249.002 159.275 246.754 160.291 243.853 160.769C240.952 161.233 238.501 160.972 238.37 160.189C238.239 159.391 240.488 158.376 243.389 157.897C246.29 157.419 248.741 157.694 248.872 158.477Z" fill="#FAD332"/>
<path d="M145.118 193.478H81.8029C78.989 193.478 76.7117 191.201 76.7117 188.387V174.999C76.7117 172.185 78.989 169.907 81.8029 169.907H145.132C147.946 169.907 150.223 172.185 150.223 174.999V188.387C150.209 191.201 147.931 193.478 145.118 193.478Z" fill="#E3EAFF"/>
<path d="M99.5426 178.364V184.993C99.5426 186.777 98.0921 188.227 96.308 188.227H83.7611C83.1084 188.227 82.4847 188.024 81.977 187.691C81.1067 187.11 80.5265 186.124 80.5265 184.993V178.364C80.5265 176.58 81.977 175.129 83.7611 175.129H96.308C97.0332 175.129 97.715 175.376 98.2517 175.782C99.0349 176.377 99.5426 177.305 99.5426 178.364Z" fill="#FABA23"/>
<path d="M125.115 184.384H104.286C102.792 184.384 101.588 183.18 101.588 181.686C101.588 180.192 102.792 178.988 104.286 178.988H125.101C126.595 178.988 127.799 180.192 127.799 181.686C127.813 183.18 126.609 184.384 125.115 184.384Z" fill="#95A6DB"/>
<path d="M143.696 184.384H133.267C131.773 184.384 130.569 183.18 130.569 181.686C130.569 180.192 131.773 178.988 133.267 178.988H143.696C145.19 178.988 146.394 180.192 146.394 181.686C146.394 183.18 145.19 184.384 143.696 184.384Z" fill="#4EAD60"/>
<path d="M98.2517 175.782L81.977 187.705C81.1067 187.125 80.5265 186.139 80.5265 185.007V178.378C80.5265 176.594 81.977 175.144 83.7611 175.144H96.308C97.0332 175.129 97.7005 175.376 98.2517 175.782Z" fill="#FAD332"/>
<path d="M95.3217 184.514C95.3217 185.718 94.3499 186.69 93.146 186.69C91.9421 186.69 90.9702 185.718 90.9702 184.514C90.9702 183.31 91.9421 182.338 93.146 182.338C94.3499 182.338 95.3217 183.31 95.3217 184.514Z" fill="#E62552"/>
<path d="M97.918 184.514C97.918 185.718 96.9462 186.69 95.7423 186.69C94.5384 186.69 93.5665 185.718 93.5665 184.514C93.5665 183.31 94.5384 182.338 95.7423 182.338C96.9462 182.338 97.918 183.31 97.918 184.514Z" fill="#95A6DB"/>
<path d="M328.49 154.808C329.752 150.848 329.448 147.004 326.663 144.408C323.849 141.782 319.323 142.609 319.323 142.609C319.323 142.609 316.161 140.549 312.201 143.247C308.241 145.945 309.88 149.557 307.995 151.762C306.878 153.067 302.947 152.443 302.773 157.549C302.729 159.014 304.18 160.363 305.587 160.798C308.053 161.567 310.78 161.059 311.403 162.365C313.521 166.847 321.673 166.992 323.414 164.323C323.95 163.496 330.202 166.847 331.014 160.523C331.435 157.317 327.359 158.347 328.49 154.808Z" fill="#020205"/>
<path d="M312.346 153.241C311.839 158.115 314.522 162.394 318.351 162.8C322.181 163.206 325.705 159.58 326.213 154.692C326.721 149.818 324.037 145.539 320.208 145.133C316.379 144.741 312.854 148.367 312.346 153.241Z" fill="#F37A50"/>
<path d="M324.139 155.301C324.182 155.664 324.516 155.925 324.879 155.881C325.241 155.838 325.502 155.504 325.459 155.141C325.415 154.779 325.082 154.518 324.719 154.561C324.356 154.59 324.095 154.938 324.139 155.301Z" fill="black"/>
<path d="M318.743 154.764C318.787 155.156 319.149 155.446 319.555 155.402C319.947 155.359 320.237 154.996 320.194 154.59C320.15 154.198 319.787 153.908 319.381 153.952C318.975 154.01 318.7 154.372 318.743 154.764Z" fill="black"/>
<path d="M318.192 153.937C318.25 153.937 318.293 153.908 318.337 153.865C318.946 153.241 319.918 153.43 319.933 153.43C320.063 153.459 320.208 153.372 320.223 153.227C320.252 153.096 320.165 152.951 320.02 152.937C319.962 152.922 318.772 152.69 317.974 153.517C317.873 153.618 317.873 153.778 317.974 153.879C318.047 153.923 318.119 153.937 318.192 153.937Z" fill="#020205"/>
<path d="M325.836 154.866C325.865 154.866 325.894 154.851 325.909 154.837C326.039 154.779 326.083 154.619 326.025 154.503C325.546 153.531 324.56 153.517 324.516 153.517C324.371 153.517 324.27 153.633 324.255 153.763C324.255 153.908 324.371 154.01 324.502 154.024C324.531 154.024 325.241 154.053 325.56 154.735C325.633 154.822 325.735 154.88 325.836 154.866Z" fill="#020205"/>
<path d="M323.254 156.534C323.472 157.012 323.646 157.491 323.907 157.81C323.994 157.926 323.979 158.086 323.878 158.173C323.443 158.55 322.529 158.666 321.978 158.695C321.891 158.695 321.876 158.593 321.949 158.564C322.587 158.318 322.906 158.071 323.051 157.926C323.124 157.854 323.153 157.752 323.153 157.651C323.124 157.419 323.066 156.954 323.051 156.577C323.022 156.447 323.196 156.403 323.254 156.534Z" fill="#DE623C"/>
<path d="M318.076 158.739C318.018 158.565 318.192 158.419 318.351 158.492C318.758 158.695 319.425 159 320.092 159.246C320.759 159.478 321.485 159.652 321.92 159.754C322.094 159.797 322.137 160.015 321.992 160.117C321.543 160.421 320.687 160.827 319.671 160.465C318.642 160.102 318.235 159.261 318.076 158.739Z" fill="white"/>
<path d="M312.39 152.821C316.799 153.749 324.226 151.544 325.488 149.499C325.604 146.569 321.731 143.697 318.845 144.06C315.958 144.408 311.781 148.846 312.39 152.821Z" fill="#020205"/>
<path d="M325.386 166.006C329.926 167.137 337.701 177.755 338.426 185.718C335.932 186.24 333.089 184.253 333.089 184.253L326.909 175.376L325.386 166.006Z" fill="#DE623C"/>
<path d="M329.781 257.068L332.218 247.48L326.184 246.654C325.981 251.194 325.633 255.647 325.662 256.865L329.781 257.068Z" fill="#F37A50"/>
<path d="M315.378 246.61H309.068C309.271 248.119 310.098 256.3 310.098 256.3C310.635 257.504 315.334 257.228 315.334 256.546C314.986 255.081 315.349 246.799 315.378 246.61Z" fill="#F37A50"/>
<path d="M325.691 250.352L331.914 251.266L336.222 225.491C335.337 215.7 326.721 194.885 326.721 194.885L317.017 198.279L316.785 207.461L328.476 227.26C326.938 231.09 325.894 243.463 325.691 250.352Z" fill="#C4204A"/>
<path d="M320.875 195.581C320.788 194.972 320.759 194.784 320.252 194.479L310.925 191.839L308.706 194.029C306.602 201.659 307.908 212.277 309.561 220.704C307.139 228 308.082 243.027 309.054 250.091H315.682C316.074 245.363 315.944 236.616 315.973 232.381C316.828 228.987 317.655 225.36 318.395 221.545C319.338 216.672 320.527 211.943 320.846 207.534C321.18 203.327 321.267 198.831 320.875 195.581Z" fill="#E62552"/>
<path d="M309.126 164.831C306.936 166.267 297.696 178.291 302.787 188.184C303.02 188.314 307.095 181.41 307.095 181.41L311.911 171.88L309.126 164.831Z" fill="#F37A50"/>
<path d="M313.753 158.579L319.541 161.872C319.541 161.872 320.048 164.222 320.31 164.976C320.832 166.542 318.816 167.224 317.104 166.252C315.392 165.28 314.275 163.975 314.275 163.975L313.753 158.579Z" fill="#F37A50"/>
<path d="M328.157 196.408C328.157 196.408 325.763 199.237 325.372 199.454L323.24 197.119L323.225 197.163L322.717 198.497L322.123 200.064C321.63 200.064 306.704 196.727 306.704 196.727C306.733 195.378 307.995 191.027 310.04 186.385C309.547 182.454 310.026 178.378 309.866 176.116C311.07 170.038 310.214 167.717 309.126 164.845L312.912 163.728L319.729 166.136L320.237 164.497C320.237 164.497 324.502 165.527 325.401 166.02L327.011 172.751L326.663 187.053C326.648 187.038 327.185 192.797 328.157 196.408Z" fill="#652D86"/>
<path d="M314.218 162.96L311.549 164.091C311.824 167.297 319.004 169.211 319.004 169.211L319.715 166.122L314.218 162.96Z" fill="#652D86"/>
<path d="M319.715 166.122L321.833 168.472C321.833 168.472 323.66 166.586 322.993 165.411C322.326 164.251 319.918 163.453 319.918 163.453L319.715 166.122Z" fill="#652D86"/>
<path d="M328.316 256.923C328.955 255.27 330.304 255.081 330.304 255.081C332.929 258.577 339.369 256.43 339.152 261.173C329.346 261.115 325.285 261.173 325.285 261.173C325.299 260.085 325.488 257.504 325.72 256.488L326.228 256.575L328.316 256.923Z" fill="#2C2858"/>
<path d="M338.586 262.421H325.85C325.531 262.421 325.285 262.16 325.285 261.855V261.028H339.166V261.855C339.152 262.174 338.905 262.421 338.586 262.421Z" fill="#2C2858"/>
<path d="M323.211 197.148L322.703 198.482C322.239 195.407 320.527 182.541 321.499 178.988C322.413 175.651 321.267 172.127 320.179 168.733C319.918 167.906 319.628 167.035 319.396 166.209L319.729 166.107L320.063 166.006C320.295 166.832 320.571 167.688 320.846 168.5C321.978 171.996 323.138 175.622 322.181 179.147C321.325 182.251 322.601 192.811 323.211 197.148Z" fill="#652D86"/>
<path d="M316.466 261.217C316.466 261.217 315.683 258.287 315.61 257.91C315.537 257.475 315.305 256.474 315.247 255.951C315.233 255.821 313.884 254.994 312.854 254.994C311.462 254.994 310.185 255.806 310.156 255.951C309.997 256.938 309.982 258.084 309.721 259.041C309.518 259.752 308.981 261.405 308.981 261.405L316.466 261.217Z" fill="#2C2858"/>
<path d="M316.466 260.985C316.277 261.565 314.014 260.898 312.375 260.898C310.983 260.898 309.199 261.434 308.996 261.231C308.648 261.841 308.938 263.117 308.938 263.117C308.938 263.117 310.388 263.19 312.114 263.117C313.84 263.044 315.842 263.146 316.596 262.928C317.06 262.116 316.466 260.985 316.466 260.985Z" fill="#2C2858"/>
<path d="M319.352 178.306C319.352 178.306 307.415 190.273 302.773 188.198C301.25 186.139 304.485 181.99 307.531 180.598C310.562 179.22 315.639 177.029 315.639 177.029L319.352 178.306Z" fill="#F37A50"/>
<path d="M321.615 174.245L326.576 170.415C326.677 170.328 326.822 170.299 326.953 170.328L330.333 170.937C330.434 170.952 330.623 171.547 330.55 171.605L327.17 173.635C327.156 173.65 327.141 173.65 327.112 173.664L321.804 174.578C321.702 174.564 321.528 174.303 321.615 174.245Z" fill="#F9CD2D"/>
<path d="M321.876 174.607L326.59 171.01C326.692 170.923 326.837 170.894 326.967 170.923L330.463 171.518C330.565 171.532 330.594 171.663 330.507 171.721L327.185 174.23C327.17 174.245 327.156 174.245 327.127 174.259L321.949 174.825C321.833 174.825 321.775 174.68 321.876 174.607Z" fill="#F9F93A"/>
<path d="M315.523 177.088L318.308 175.695C318.308 175.695 320.077 173.766 320.629 173.2C321.339 172.997 322.703 172.402 322.993 172.417C323.269 172.431 323.747 172.605 323.747 172.605L322.137 173.867C322.137 173.867 322.79 174.172 323.718 173.809C324.647 173.447 326.358 172.315 327.025 172.722C327.243 172.997 327.243 172.997 327.243 172.997C327.243 172.997 327.823 172.547 328.171 172.852C329.259 173.809 322.282 177.972 322.282 177.972L319.381 178.32L315.523 177.088Z" fill="#F37A50"/>
<path d="M327.098 171.779C326.895 171.909 326.663 171.895 326.561 171.75C326.46 171.605 326.532 171.372 326.735 171.227C326.938 171.097 327.17 171.111 327.272 171.256C327.373 171.416 327.301 171.648 327.098 171.779Z" fill="#F9CD2D"/>
<path d="M338.426 185.703C338.426 185.703 332.233 192.782 327.925 193.783C327.664 192.361 327.432 191.273 327.432 191.273L333.306 183.542L338.426 185.703Z" fill="#DE623C"/>
<path d="M327.156 194.174C327.17 194.116 327.214 194.058 327.243 194.015C327.228 194.015 327.228 194.015 327.214 194C326.605 193.797 326.228 193.275 326.373 192.84C326.402 192.767 326.431 192.709 326.474 192.651C326.155 192.405 325.981 192.042 326.097 191.738C326.141 191.607 326.213 191.506 326.329 191.433C325.996 191.201 325.822 190.824 325.938 190.476C326.083 190.04 326.619 189.823 327.141 189.997C327.664 190.171 327.968 190.664 327.823 191.099C327.78 191.215 327.722 191.302 327.649 191.389C328.157 191.622 328.461 192.086 328.331 192.477C328.302 192.55 328.273 192.608 328.229 192.666C328.548 192.912 328.723 193.275 328.606 193.58C328.563 193.696 328.49 193.797 328.403 193.87C328.708 194.058 328.882 194.407 328.781 194.711C328.664 195.088 328.2 195.262 327.765 195.117C327.286 194.958 327.025 194.552 327.156 194.174Z" fill="#DE623C"/>
<path d="M313.782 153.546C314.508 154.663 314.333 156.055 313.42 156.635C312.506 157.23 311.171 156.795 310.461 155.663C309.735 154.547 309.909 153.154 310.823 152.574C311.737 151.994 313.072 152.414 313.782 153.546Z" fill="#F37A50"/>
<path d="M312.288 155.968C312.332 155.968 312.375 155.954 312.419 155.925C312.984 155.547 313.217 154.996 313.057 154.431C312.897 153.85 312.361 153.43 311.781 153.415C311.621 153.415 311.49 153.546 311.49 153.705C311.49 153.865 311.621 153.995 311.781 153.995C312.1 153.995 312.419 154.256 312.506 154.59C312.593 154.909 312.462 155.199 312.114 155.431C311.984 155.518 311.94 155.707 312.027 155.838C312.085 155.939 312.187 155.983 312.288 155.968Z" fill="#DE623C"/>
<path d="M32.8774 199.686C35.7204 204.879 33.8058 211.392 28.613 214.235C23.4201 217.078 16.9074 215.163 14.0644 209.97C11.2214 204.778 13.1361 198.265 18.3289 195.422C23.5217 192.579 30.0345 194.494 32.8774 199.686Z" fill="white"/>
<path d="M26.8434 212.436L25.857 210.638C24.8127 211.189 23.5798 211.45 22.7095 211.348L22.4919 209.927C23.3622 210 24.4646 209.84 25.4654 209.289C26.7274 208.607 27.177 207.403 26.6258 206.402C26.0891 205.43 25.0738 205.198 23.4637 205.387C21.2589 205.663 19.7069 205.459 18.8511 203.922C18.0388 202.442 18.4885 200.76 19.968 199.599L18.9817 197.801L20.084 197.206L21.0269 198.932C22.1147 198.381 22.9996 198.265 23.6668 198.294L23.8699 199.701C23.3767 199.686 22.4339 199.701 21.3025 200.325C19.939 201.064 19.8665 202.167 20.2581 202.878C20.7658 203.806 21.6651 203.907 23.5652 203.704C25.799 203.443 27.2205 203.864 28.0908 205.445C28.8596 206.852 28.5985 208.694 26.9304 210L27.9458 211.842L26.8434 212.436Z" fill="#D3ADF7"/>
<path d="M370.367 167.021C367.828 172.373 361.431 174.636 356.079 172.098C350.727 169.559 348.464 163.163 351.002 157.81C353.541 152.458 359.937 150.195 365.29 152.733C370.642 155.272 372.905 161.669 370.367 167.021Z" fill="white"/>
<path d="M356.5 169.617L357.385 167.775C356.34 167.253 355.397 166.397 354.977 165.643L355.992 164.628C356.442 165.382 357.225 166.18 358.255 166.658C359.546 167.282 360.779 166.948 361.272 165.904C361.751 164.903 361.33 163.946 360.242 162.756C358.734 161.146 357.979 159.754 358.733 158.158C359.459 156.65 361.083 156.012 362.896 156.534L363.781 154.692L364.913 155.228L364.071 156.998C365.145 157.549 365.754 158.202 366.146 158.768L365.116 159.754C364.84 159.348 364.274 158.594 363.114 158.042C361.707 157.375 360.779 157.955 360.431 158.695C359.981 159.638 360.431 160.436 361.707 161.857C363.216 163.525 363.723 164.918 362.94 166.542C362.258 167.978 360.605 168.863 358.574 168.268L357.675 170.169L356.5 169.617Z" fill="#D3ADF7"/>
<path d="M336.381 58.088C338.775 63.5129 336.309 69.8371 330.884 72.2159C325.459 74.5947 319.135 72.1434 316.756 66.7185C314.363 61.2936 316.828 54.9694 322.253 52.5906C327.664 50.2117 333.988 52.6631 336.381 58.088Z" fill="#B37FEB"/>
<path d="M329.288 70.2868L328.462 68.4156C327.374 68.8653 326.126 69.0249 325.27 68.8508L325.169 67.4148C326.025 67.5598 327.142 67.4873 328.186 67.0377C329.506 66.4575 330.057 65.3116 329.593 64.2527C329.143 63.2373 328.142 62.9182 326.532 62.9762C324.313 63.0633 322.776 62.7297 322.065 61.1196C321.383 59.5821 321.963 57.943 323.544 56.9131L322.718 55.042L323.863 54.5343L324.661 56.3329C325.793 55.8833 326.677 55.8398 327.359 55.9268L327.432 57.3483C326.938 57.2903 326.01 57.2177 324.821 57.7399C323.399 58.3636 323.24 59.4515 323.559 60.1913C323.979 61.1486 324.879 61.3372 326.779 61.2937C329.027 61.2356 330.42 61.7723 331.145 63.4114C331.783 64.8764 331.377 66.6895 329.607 67.8499L330.449 69.7791L329.288 70.2868Z" fill="white"/>
<path d="M3.51923 124.739L10.5977 111.539C10.5977 111.539 19.2282 112.279 23.2026 122.287C25.6539 128.496 33.9943 131.701 33.9943 131.701L26.8724 144.973C26.8724 144.973 15.9936 142.058 13.2956 134.921C10.4671 127.379 3.51923 124.739 3.51923 124.739Z" fill="#B37FEB"/>
<path d="M22.927 132.804C20.5771 134.776 16.8058 134.153 14.514 131.411C12.2077 128.67 12.2512 124.855 14.6011 122.882C16.9509 120.909 20.7222 121.533 23.014 124.275C25.3058 127.002 25.2768 130.831 22.927 132.804Z" fill="#D3ADF7"/>
<path d="M284.265 39.0284L274.3 27.845C274.3 27.845 277.969 19.9978 288.718 19.7076C295.39 19.5336 301.279 12.8177 301.279 12.8177L311.287 24.0592C311.287 24.0592 304.804 33.2844 297.174 33.3424C289.124 33.4294 284.265 39.0284 284.265 39.0284Z" fill="#B37FEB"/>
<path d="M298.494 23.595C299.538 26.4815 297.653 29.8031 294.302 31.0216C290.937 32.24 287.369 30.891 286.324 28.0045C285.28 25.118 287.166 21.7963 290.516 20.5779C293.881 19.3595 297.45 20.7085 298.494 23.595Z" fill="#D3ADF7"/>
<path d="M349.711 206.794L351.336 194.682C351.336 194.682 358.139 192.768 364.042 199.28C367.698 203.313 374.994 203.385 374.994 203.385L373.355 215.569C373.355 215.569 364.202 216.454 360.112 211.784C355.76 206.823 349.711 206.794 349.711 206.794Z" fill="#B37FEB"/>
<path d="M366.827 207.389C365.594 209.564 362.548 210.174 359.996 208.738C357.457 207.302 356.384 204.372 357.617 202.196C358.85 200.02 361.896 199.411 364.449 200.847C367.001 202.283 368.06 205.213 366.827 207.389Z" fill="#D3ADF7"/>
<path d="M193.1 95.221L191.418 82.7031C191.418 82.7031 184.383 80.7305 178.305 87.4608C174.534 91.6238 167.006 91.6963 167.006 91.6963L168.688 104.272C168.688 104.272 178.146 105.186 182.367 100.356C186.834 95.2355 193.1 95.221 193.1 95.221Z" fill="#B37FEB"/>
<path d="M175.404 95.8302C176.666 98.0785 179.828 98.7022 182.454 97.2227C185.079 95.7432 186.181 92.7261 184.905 90.4633C183.643 88.215 180.481 87.5913 177.855 89.0708C175.23 90.5503 174.142 93.5819 175.404 95.8302Z" fill="#D3ADF7"/>
<path d="M145.118 222.053H81.8029C78.989 222.053 76.7117 219.776 76.7117 216.962V203.574C76.7117 200.76 78.989 198.482 81.8029 198.482H145.132C147.946 198.482 150.223 200.76 150.223 203.574V216.962C150.209 219.776 147.931 222.053 145.118 222.053Z" fill="#E3EAFF"/>
<path d="M99.5426 206.939V213.568C99.5426 215.352 98.0921 216.802 96.308 216.802H83.7611C83.1084 216.802 82.4847 216.599 81.977 216.266C81.1067 215.685 80.5265 214.699 80.5265 213.568V206.939C80.5265 205.155 81.977 203.704 83.7611 203.704H96.308C97.0332 203.704 97.715 203.951 98.2517 204.357C99.0349 204.952 99.5426 205.88 99.5426 206.939Z" fill="#D6224C"/>
<path d="M125.115 212.958H104.286C102.792 212.958 101.588 211.754 101.588 210.26C101.588 208.766 102.792 207.562 104.286 207.562H125.101C126.595 207.562 127.799 208.766 127.799 210.26C127.813 211.754 126.609 212.958 125.115 212.958Z" fill="#95A6DB"/>
<path d="M143.696 212.958H133.267C131.773 212.958 130.569 211.754 130.569 210.26C130.569 208.766 131.773 207.562 133.267 207.562H143.696C145.19 207.562 146.394 208.766 146.394 210.26C146.394 211.754 145.19 212.958 143.696 212.958Z" fill="#4EAD60"/>
<path d="M98.2517 204.357L81.977 216.28C81.1067 215.7 80.5265 214.714 80.5265 213.582V206.953C80.5265 205.169 81.977 203.719 83.7611 203.719H96.308C97.0332 203.704 97.7005 203.951 98.2517 204.357Z" fill="#E62552"/>
<path d="M93.213 215.271C94.4141 215.235 95.3593 214.233 95.324 213.032C95.2887 211.831 94.2863 210.886 93.0852 210.921C91.884 210.956 90.9389 211.959 90.9742 213.16C91.0095 214.361 92.0118 215.306 93.213 215.271Z" fill="#FAC832"/>
<path d="M97.918 213.089C97.918 214.293 96.9462 215.265 95.7423 215.265C94.5384 215.265 93.5665 214.293 93.5665 213.089C93.5665 211.885 94.5384 210.913 95.7423 210.913C96.9462 210.913 97.918 211.885 97.918 213.089Z" fill="#95A6DB"/>
<path d="M145.118 250.628H81.8029C78.989 250.628 76.7117 248.351 76.7117 245.537V232.149C76.7117 229.335 78.989 227.057 81.8029 227.057H145.132C147.946 227.057 150.223 229.335 150.223 232.149V245.537C150.209 248.336 147.931 250.628 145.118 250.628Z" fill="#E3EAFF"/>
<path d="M99.5426 235.514V242.143C99.5426 243.927 98.0921 245.377 96.308 245.377H83.7611C83.1084 245.377 82.4847 245.174 81.977 244.841C81.1067 244.26 80.5265 243.274 80.5265 242.143V235.514C80.5265 233.73 81.977 232.279 83.7611 232.279H96.308C97.0332 232.279 97.715 232.526 98.2517 232.932C99.0349 233.512 99.5426 234.455 99.5426 235.514Z" fill="#FABA23"/>
<path d="M125.115 241.533H104.286C102.792 241.533 101.588 240.33 101.588 238.836C101.588 237.341 102.792 236.138 104.286 236.138H125.101C126.595 236.138 127.799 237.341 127.799 238.836C127.813 240.33 126.609 241.533 125.115 241.533Z" fill="#95A6DB"/>
<path d="M143.696 241.533H133.267C131.773 241.533 130.569 240.33 130.569 238.836C130.569 237.341 131.773 236.138 133.267 236.138H143.696C145.19 236.138 146.394 237.341 146.394 238.836C146.394 240.33 145.19 241.533 143.696 241.533Z" fill="#4EAD60"/>
<path d="M98.2517 232.932L81.977 244.855C81.1067 244.275 80.5265 243.289 80.5265 242.157V235.528C80.5265 233.744 81.977 232.294 83.7611 232.294H96.308C97.0332 232.279 97.7005 232.526 98.2517 232.932Z" fill="#FAD332"/>
<path d="M95.3217 241.65C95.3217 242.853 94.3499 243.825 93.146 243.825C91.9421 243.825 90.9702 242.853 90.9702 241.65C90.9702 240.446 91.9421 239.474 93.146 239.474C94.3499 239.474 95.3217 240.46 95.3217 241.65Z" fill="#E62552"/>
<path d="M97.918 241.65C97.918 242.853 96.9462 243.825 95.7423 243.825C94.5384 243.825 93.5665 242.853 93.5665 241.65C93.5665 240.446 94.5384 239.474 95.7423 239.474C96.9462 239.474 97.918 240.46 97.918 241.65Z" fill="#95A6DB"/>
<defs>
<linearGradient id="paint0_linear" x1="113.141" y1="93.3788" x2="113.141" y2="259.085" gradientUnits="userSpaceOnUse">
<stop stop-color="#693390"/>
<stop offset="1" stop-color="#8B61A9"/>
</linearGradient>
<linearGradient id="paint1_linear" x1="267.606" y1="93.3788" x2="267.606" y2="259.085" gradientUnits="userSpaceOnUse">
<stop stop-color="#693390"/>
<stop offset="1" stop-color="#8B61A9"/>
</linearGradient>
</defs>
</svg>
