<svg width="2226" height="1396" viewBox="0 0 2226 1396" fill="none" xmlns="http://www.w3.org/2000/svg">
<path d="M2070.28 1C2045.29 291.055 1724.42 150.995 1556.32 98.1473C1491.75 77.8482 1437.08 80.1502 1369.81 77.9441C1276.14 74.8723 1184.92 67.3692 1090.91 74.9351C855.416 93.888 611.603 151.206 396.021 246.877C232.467 319.46 47.9114 424.49 16.5616 616.123C7.24411 673.079 -10.5698 753.405 11.8345 809.128C56.0929 919.206 181.908 1014.82 278.273 1073.92C565.742 1250.23 904 1387.88 1245.19 1393.3C1335.21 1394.73 1425.91 1396.06 1515.92 1393.73C1581.48 1392.03 1633.12 1368 1692.54 1343.01C1813.18 1292.27 1932.44 1228.4 2012.7 1122.49C2071.71 1044.63 2143.05 974.496 2184.6 884.783C2226.67 793.94 2224.99 700.401 2224.99 602.798C2224.99 536.879 2218.96 497.178 2175.14 446.33C2150.26 417.461 2128.15 386.254 2096.5 364.228C2020.8 311.556 1930.92 303.556 1844.24 279.546C1725.49 246.654 1604.39 240.859 1481.97 240.859C1305.06 240.859 1128.15 240.859 951.244 240.859C779.126 240.859 617.403 228.968 457.044 299.32C343.622 349.08 269.942 414.711 192.325 508.229C157.243 550.498 105.518 601.484 105.518 660.398C105.518 689.477 103.252 719.607 106.377 748.519C114.14 820.343 196.158 887.695 249.48 929.058C363.173 1017.25 487.159 1110.34 631.518 1136.68C788.124 1165.25 948.542 1180.21 1107.24 1185.25C1258.58 1190.06 1410.38 1212.54 1561.47 1221.79C1619.12 1225.32 1684.62 1230.68 1741.96 1219.21C1792.03 1209.19 1839.61 1174.4 1881.2 1145.71C2004.56 1060.61 1992.93 914.79 1992.93 779.038C1992.93 706.034 2014.5 593.504 1981.33 527.143C1940.56 445.582 1819.15 434.294 1740.25 434.294C1340.87 434.294 941.503 434.294 542.133 434.294C431.173 434.294 347.427 464.274 305.776 577.006C285.106 632.953 283.43 702.065 283.43 760.984C283.43 773.073 276.187 810.963 292.454 812.997C326.984 817.314 382.066 820.864 414.5 808.698C481.511 783.562 530.959 674.696 530.959 608.816C530.959 548.81 522.461 558.093 464.78 558.093C434.045 558.093 363.72 599.698 353.907 631.598C351.173 640.486 354.874 671.264 362.502 649.222C371.355 623.638 376.665 598.183 388.286 573.567C407.952 531.91 451.252 488.456 500.878 488.456C582.625 488.456 620.966 479.641 677.93 542.618C721.935 591.268 661.775 676.937 627.651 708.542C576.496 755.92 446.926 814.755 438.136 896.819C428.445 987.287 551.934 989.491 616.477 995.256C653.807 998.59 729.322 1014.5 763.018 989.668C800.656 961.927 827.124 906.415 834.355 861.571C843.452 805.157 854.036 739.505 809.43 697.366C771.037 661.095 668.482 663.26 627.651 690.488C577.034 724.242 555.413 761.043 561.901 819.445C567.093 866.193 657.56 859.851 689.533 859.851C746.763 859.851 759.903 769.528 769.035 726.596C784.751 652.711 804.441 587.641 871.313 543.048C900.231 523.763 939 527.143 971.872 527.143C1064.71 527.143 1173.6 538.153 1211.67 643.204C1259.23 774.463 1094.77 839.059 1002.81 890.801C939.315 926.528 902.254 971.492 902.254 1045.55C902.254 1085.15 928.912 1075.3 963.277 1078.22C1072.72 1087.51 1178.77 1099.71 1289.02 1099.71C1392.24 1099.71 1495.87 1096.83 1596.71 1072.2C1686.01 1050.39 1783.62 1039.5 1867.02 999.984C1917.42 976.102 2051.75 922.177 1975.74 845.236C1883.99 752.352 1705.93 774.679 1593.27 806.549C1511.4 829.713 1434.63 863.01 1355.2 892.52C1330.24 901.794 1253.7 940.484 1228.86 916.592C1210.69 899.116 1204.77 792.688 1253.35 814.287C1263.9 818.977 1269.23 856.608 1275.27 867.589C1295.7 904.747 1366.33 890.801 1400.75 890.801C1462.92 890.801 1525.09 890.801 1587.26 890.801C1614.39 890.801 1646.25 895.95 1672.35 889.081C1697.91 882.352 1729.87 847.619 1752.71 832.77C1784.59 812.042 1823.03 762.716 1830.06 724.017C1856.88 576.466 1595.29 602.55 1514.2 606.236C1459.59 608.719 1315.44 604.993 1304.92 689.199C1297.12 751.609 1484.37 759.265 1521.08 759.265C1575.03 759.265 1586.53 708.317 1531.39 691.348C1468.02 671.842 1393.56 679.938 1327.7 670.715C1266.94 662.207 1204.13 666.416 1142.91 666.416C1072.07 666.416 1009.69 708.007 964.136 759.265C939.866 786.576 995.078 792.729 995.078 751.528" stroke="#E3E3E3" stroke-opacity="0.35" stroke-linecap="round" stroke-linejoin="round"/>
</svg>
