<svg width="25" height="16" viewBox="0 0 25 16" fill="none" xmlns="http://www.w3.org/2000/svg">
<path d="M9.95215 2.14118H9.8093C9.88787 2.14118 9.95215 2.0769 9.95215 1.99833V2.14118H15.3807V1.99833C15.3807 2.0769 15.445 2.14118 15.5236 2.14118H15.3807V3.4269H16.6664V1.99833C16.6664 1.36797 16.1539 0.855469 15.5236 0.855469H9.8093C9.17894 0.855469 8.66644 1.36797 8.66644 1.99833V3.4269H9.95215V2.14118ZM18.9522 3.4269H6.38072C6.06465 3.4269 5.8093 3.68225 5.8093 3.99833V4.56976C5.8093 4.64833 5.87358 4.71261 5.95215 4.71261H7.03072L7.4718 14.0519C7.50037 14.6608 8.00394 15.1412 8.61287 15.1412H16.72C17.3307 15.1412 17.8325 14.6626 17.8611 14.0519L18.3022 4.71261H19.3807C19.4593 4.71261 19.5236 4.64833 19.5236 4.56976V3.99833C19.5236 3.68225 19.2682 3.4269 18.9522 3.4269ZM16.5825 13.8555H8.75037L8.31822 4.71261H17.0147L16.5825 13.8555Z" fill="#882C62"/>
</svg>
