<svg width="17" height="18" viewBox="0 0 17 18" fill="none" xmlns="http://www.w3.org/2000/svg">
<path d="M8.49707 0.50293C3.80471 0.50293 0 4.30764 0 9C0 13.6923 3.80471 17.4971 8.49707 17.4971C13.1894 17.4971 16.9941 13.6923 16.9941 9C16.9941 4.30764 13.1894 0.50293 8.49707 0.50293ZM12.1671 6.22517L8.17274 11.7634C8.11691 11.8414 8.04331 11.9049 7.95805 11.9487C7.87278 11.9925 7.7783 12.0153 7.68245 12.0153C7.58659 12.0153 7.49211 11.9925 7.40685 11.9487C7.32158 11.9049 7.24799 11.8414 7.19216 11.7634L4.82702 8.486C4.75494 8.38548 4.82702 8.24512 4.9503 8.24512H5.83984C6.0333 8.24512 6.21727 8.33806 6.33107 8.49738L7.6815 10.3713L10.6631 6.23655C10.7769 6.07913 10.9589 5.9843 11.1543 5.9843H12.0438C12.1671 5.9843 12.2392 6.12465 12.1671 6.22517Z" fill="#375728"/>
</svg>
