<svg width="25" height="24" viewBox="0 0 25 24" fill="none" xmlns="http://www.w3.org/2000/svg">
<path d="M20.614 10.1111H20.0585V6.77778C20.0585 6.63044 19.9999 6.48913 19.8958 6.38494C19.7916 6.28075 19.6503 6.22222 19.5029 6.22222H6.16959C6.03804 6.22437 5.91 6.17976 5.80826 6.09633C5.70653 6.01291 5.6377 5.89609 5.61404 5.76667V5.56667C5.6377 5.43725 5.70653 5.32042 5.80826 5.237C5.91 5.15358 6.03804 5.10897 6.16959 5.11111H19.2696C19.4169 5.11111 19.5582 5.05258 19.6624 4.94839C19.7666 4.84421 19.8251 4.7029 19.8251 4.55556C19.8251 4.40821 19.7666 4.26691 19.6624 4.16272C19.5582 4.05853 19.4169 4 19.2696 4H6.16959C5.72756 4 5.30364 4.17559 4.99108 4.48816C4.67852 4.80072 4.50292 5.22464 4.50292 5.66667C4.49903 5.73328 4.49903 5.80006 4.50292 5.86667V17.2944C4.50511 17.5936 4.56618 17.8893 4.68267 18.1649C4.79916 18.4404 4.96878 18.6902 5.18184 18.9002C5.3949 19.1102 5.64723 19.2761 5.92442 19.3886C6.20162 19.501 6.49825 19.5578 6.79737 19.5556H19.5029C19.6503 19.5556 19.7916 19.497 19.8958 19.3928C19.9999 19.2887 20.0585 19.1473 20.0585 19V15.6667H20.614C20.7614 15.6667 20.9027 15.6081 21.0069 15.5039C21.1111 15.3998 21.1696 15.2585 21.1696 15.1111V10.6667C21.1696 10.5193 21.1111 10.378 21.0069 10.2738C20.9027 10.1696 20.7614 10.1111 20.614 10.1111ZM18.9474 18.4444H6.79737C6.48837 18.4474 6.19069 18.3283 5.96909 18.1129C5.74748 17.8976 5.61988 17.6034 5.61404 17.2944V7.26667C5.79437 7.31893 5.98201 7.34144 6.16959 7.33333H18.9474V10.1111H15.0585C14.3218 10.1111 13.6152 10.4038 13.0943 10.9247C12.5734 11.4456 12.2807 12.1522 12.2807 12.8889C12.2807 13.6256 12.5734 14.3321 13.0943 14.8531C13.6152 15.374 14.3218 15.6667 15.0585 15.6667H18.9474V18.4444ZM20.0585 14.5556H15.0585C14.6165 14.5556 14.1925 14.38 13.88 14.0674C13.5674 13.7548 13.3918 13.3309 13.3918 12.8889C13.3918 12.4469 13.5674 12.0229 13.88 11.7104C14.1925 11.3978 14.6165 11.2222 15.0585 11.2222H20.0585V14.5556Z" fill="white"/>
<path d="M15.6195 13.7223C16.0797 13.7223 16.4528 13.3492 16.4528 12.889C16.4528 12.4288 16.0797 12.0557 15.6195 12.0557C15.1592 12.0557 14.7861 12.4288 14.7861 12.889C14.7861 13.3492 15.1592 13.7223 15.6195 13.7223Z" fill="white"/>
</svg>
